<svg width="1319" height="419" viewBox="0 0 1319 419" fill="none" xmlns="http://www.w3.org/2000/svg">
<path d="M1113.58 0.75042C1109.46 2.03619 1108.95 3.10766 1112.86 2.35763C1115.02 1.92904 1115.85 2.03619 1117.7 3.10766C1119.65 4.28628 1119.96 4.28628 1121.09 3.53625C1122.12 2.78622 1122.74 2.78622 1125 3.32195C1127.47 3.91126 1127.68 3.85769 1126.75 3.00051C1123.77 0.107538 1118.32 -0.803214 1113.58 0.75042Z" fill="black"/>
<path d="M1011.38 3.05413C1011.38 3.58987 1013.75 4.66134 1016.84 5.62567C1030.84 9.91155 1041.85 13.8224 1042.57 14.8939C1042.88 15.2153 1042.26 16.8761 1041.23 18.5905L1039.38 21.6442H1041.75C1044.42 21.6442 1046.27 20.6263 1048.02 18.2155C1048.74 17.3047 1050.39 15.1082 1051.83 13.3403C1054.3 10.3401 1054.4 9.91155 1053.17 7.50074L1051.83 4.87564L1049.57 6.58999C1046.58 8.78651 1044.01 8.67936 1038.55 6.1614C1033.61 3.91131 1028.67 3.05413 1017.97 2.5184C1012.31 2.25053 1011.38 2.3041 1011.38 3.05413Z" fill="black"/>
<path d="M203.488 4.92921C203.488 5.94711 219.955 13.6617 224.895 14.8939C231.07 16.5011 231.585 17.519 227.674 19.9298C226.233 20.8406 225.101 21.8049 225.101 22.1263C225.101 22.9299 228.6 23.7871 232.202 23.7871C234.775 23.7871 235.495 23.5192 235.907 22.287C237.657 17.9476 236.936 18.2155 248.772 17.7333C255.05 17.519 262.357 16.8225 266.268 16.1797L272.957 15.001L268.84 14.626C266.576 14.4117 260.093 14.0903 254.432 13.876C242.905 13.4474 240.538 13.0188 240.538 11.358C240.538 10.2866 240.435 10.2866 238.686 11.0902C237.657 11.6259 236.113 12.0009 235.29 12.0009C234.466 12.0009 227.262 10.3401 219.44 8.25077C204.723 4.44705 203.488 4.17918 203.488 4.92921Z" fill="black"/>
<path d="M1123.87 27.7515C1118.52 28.6623 1110.18 31.1267 1110.18 31.8231C1110.18 32.1445 1113.89 32.3588 1118.42 32.3588C1126.34 32.3588 1126.86 32.4124 1130.46 34.1803C1134.58 36.109 1134.58 36.5912 1130.15 39.6984C1128.61 40.8235 1128.61 40.9306 1130.15 41.2521C1133.03 41.8414 1136.94 40.9842 1138.18 39.4306C1139.41 38.0376 1143.94 34.9304 1148.26 32.5731C1150.43 31.3945 1150.94 29.4123 1149.4 28.1265C1148.68 27.5372 1147.75 27.8051 1145.18 29.3587C1143.32 30.4302 1141.27 31.2874 1140.55 31.2874C1139.72 31.2874 1137.87 30.4838 1136.22 29.4659C1132.72 27.2694 1129.64 26.8408 1123.87 27.7515Z" fill="black"/>
<path d="M615.155 29.9481C614.538 30.3766 612.891 30.8588 611.759 31.0731C608.877 31.5017 597.762 35.6269 595.086 37.1805L593.028 38.4127L597.351 37.2341C604.658 35.359 607.128 36.109 602.805 38.8948C600.541 40.4485 600.953 40.9306 604.864 40.9306C606.922 40.9306 608.26 40.3949 610.112 38.8948C612.376 37.1269 613.097 36.9126 616.802 36.9662C619.066 36.9662 623.08 37.5019 625.653 38.1984C629.769 39.2163 640.267 41.0378 646.545 41.7878C648.294 42.0021 648.191 41.895 646.03 41.0914C644.589 40.5556 641.502 39.2163 639.135 38.0912C636.768 36.9662 631.21 35.0375 626.785 33.8054C620.919 32.1446 618.654 31.2338 618.449 30.3231C618.037 28.9302 617.008 28.823 615.155 29.9481Z" fill="black"/>
<path d="M1087.03 35.0375C1086.72 35.3054 1088.26 36.859 1090.63 38.4662C1096.09 42.2164 1096.5 44.145 1091.97 45.1629C1088.47 45.9665 1087.13 47.2523 1090.42 46.5558C1091.35 46.3951 1094.44 46.0737 1097.11 45.913C1101.54 45.6451 1102.36 45.7522 1105.04 47.0916C1108.02 48.5916 1109.46 48.5381 1111.11 46.8773C1111.83 46.2344 1111.63 45.4844 1110.6 44.4665C1109.77 43.6093 1109.16 42.5914 1109.16 42.2164C1109.16 41.7878 1108.13 41.4664 1106.58 41.4664C1104.73 41.4664 1103.91 41.0913 1103.39 40.127C1103.08 39.4306 1101.23 38.1984 1099.28 37.4483C1095.06 35.7876 1087.85 34.3411 1087.03 35.0375Z" fill="black"/>
<path d="M1019.62 46.4487C1019.62 46.8773 1031.14 50.3595 1034.13 50.8417C1037.42 51.3774 1040.2 52.7168 1040.2 53.7347C1040.2 54.2168 1041.13 55.5026 1042.16 56.5205C1044.22 58.5027 1043.6 59.6813 1040.51 59.6813C1039.79 59.6813 1039.17 60.2706 1039.17 61.0207C1039.17 62.0921 1040 62.5743 1042.57 63.1636C1045.66 63.8601 1045.96 63.8065 1047.61 62.735L1049.36 61.5564L1052.96 63.7529C1056.36 65.7887 1064.28 68.2531 1065.52 67.5567C1066.55 67.0209 1064.9 65.1458 1060.68 62.2529C1057.29 59.8421 1056.77 59.1456 1057.29 57.5384C1058.21 54.7526 1060.78 53.1989 1068.09 51.056C1076.02 48.6988 1077.15 47.6809 1071.49 48.0023C1067.58 48.2702 1062.23 49.1273 1058.52 50.0917C1055.02 51.0024 1052.14 50.5738 1048.13 48.538L1044.22 46.5558L1031.97 46.3415C1025.18 46.2344 1019.62 46.2879 1019.62 46.4487Z" fill="black"/>
<path d="M837.147 49.7703C835.191 50.681 833.03 51.1096 830.354 51.1096C826.958 51.1096 826.032 51.3775 823.87 53.1454C822.43 54.2169 820.268 56.1455 819.033 57.4313L816.872 59.6814L820.474 58.7707C825.208 57.592 826.135 58.2349 822.532 60.2171C818.827 62.2529 819.651 63.2708 825.62 63.6994C830.045 64.0744 833.339 63.4851 833.339 62.3065C833.339 62.0922 833.75 61.2886 834.368 60.485C835.294 59.1457 835.5 59.1457 838.382 59.8957C840.028 60.3779 843.63 61.9851 846.409 63.5387C857.215 69.5925 858.862 70.3961 860.509 70.3961C862.464 70.3961 862.361 69.914 858.039 62.628C856.495 59.9493 854.848 57.1634 854.54 56.4134C854.128 55.4491 852.378 54.5919 848.673 53.574C843.63 52.1275 843.425 51.9668 844.145 50.2525C844.66 48.5917 844.557 48.431 842.395 48.431C841.058 48.431 838.69 49.0738 837.147 49.7703Z" fill="black"/>
<path d="M473.13 49.7702C472.41 50.2523 469.94 51.1095 467.881 51.6988C461.809 53.306 458.413 56.4669 462.838 56.4669C464.382 56.4669 464.897 56.8419 464.897 57.7526C464.897 58.5027 464.485 59.2527 463.867 59.4134C461.809 60.0563 462.838 61.2885 465.411 61.2885C467.367 61.2885 468.396 60.8063 469.734 59.2527C471.998 56.7883 475.188 56.4133 478.482 58.1812C479.82 58.8777 482.907 60.7528 485.377 62.36L489.905 65.3065L489.288 62.735C488.876 61.3421 487.538 58.8241 486.303 57.1098C484.451 54.699 483.113 53.8418 480.025 52.9846C477.452 52.2881 475.909 51.3774 475.394 50.3595C474.674 48.9666 474.468 48.913 473.13 49.7702Z" fill="black"/>
<path d="M525.721 56.1455C525 56.5741 523.148 57.1634 521.501 57.4848C519.751 57.8063 517.076 58.342 515.326 58.6635C513.679 58.9849 509.871 60.2171 506.887 61.3957L501.432 63.5386L507.196 63.1636C514.709 62.6815 515.429 63.3244 510.798 66.2709C507.401 68.4674 507.299 68.5746 509.151 69.2174C513.268 70.5568 520.472 69.8603 520.472 68.146C520.472 67.5567 520.986 66.6459 521.604 66.0566C522.53 65.0923 523.354 64.9851 528.499 65.3066C531.69 65.5209 536.63 66.003 539.306 66.4852C545.686 67.5031 555.875 68.7353 556.287 68.521C556.904 68.1996 551.656 65.628 546.613 63.6994C543.834 62.6815 538.791 61.1278 535.292 60.2707C529.426 58.8242 526.956 57.4848 528.191 56.4669C529.117 55.6633 526.956 55.3955 525.721 56.1455Z" fill="black"/>
<path d="M1217.32 65.3602C1215.37 66.0566 1212.79 66.6459 1211.46 66.6459C1210.01 66.6459 1208.06 67.3424 1206.52 68.4139C1203.53 70.3961 1203.02 71.5747 1205.28 71.1461C1208.06 70.6104 1208.16 72.0569 1205.49 74.1998L1202.81 76.2892H1205.49C1207.03 76.2892 1208.99 75.7534 1210.32 74.8963C1215.06 72.0033 1216.29 71.4675 1218.66 71.4675C1221.03 71.4675 1228.44 74.0391 1237.8 78.1107C1240.58 79.3429 1242.54 79.8786 1242.74 79.5036C1243.36 78.5928 1240.07 74.8963 1235.02 70.8782C1231.11 67.6638 1230.19 67.2888 1226.48 66.9674C1222.98 66.6995 1222.36 66.4316 1222.36 65.3066C1222.36 63.6994 1221.85 63.6994 1217.32 65.3602Z" fill="black"/>
<path d="M254.946 71.5747C254.946 72.3783 262.048 75.807 271.207 79.3429C275.53 81.0036 278.617 82.6108 278.617 83.1466C278.617 83.6823 276.971 84.9145 275.015 85.9324C273.06 86.9503 271.413 87.9146 271.413 88.0753C271.413 88.5575 276.25 89.6826 278 89.6826C278.823 89.6826 279.955 88.9861 280.573 88.1289C282.94 85.2359 287.777 83.468 295.907 82.5037C300.127 82.0215 305.684 81.1108 308.257 80.4679L313.094 79.3429L307.64 78.9143C304.141 78.7 300.436 78.8071 297.142 79.2357C291.791 79.9857 290.967 79.8786 290.967 78.325C290.967 77.1463 290.144 77.1463 287.468 78.1642C284.586 79.2893 283.969 79.1821 279.749 76.8785C276.765 75.1641 273.986 74.3605 265.856 72.8605C254.329 70.6639 254.946 70.7175 254.946 71.5747Z" fill="black"/>
<path d="M1261.16 79.7715C1258.9 80.7894 1257.15 81.1109 1253.24 81.1109C1247.89 81.1109 1246.55 81.6466 1242.54 85.8253C1240.79 87.5933 1240.79 87.5933 1242.84 87.0575C1245.73 86.2004 1250.15 86.3075 1250.77 87.2182C1251.08 87.6468 1250.56 88.879 1249.53 89.9505C1248.61 90.9684 1248.09 92.0399 1248.51 92.2006C1249.64 92.7899 1253.14 91.6113 1255.5 89.7362C1256.84 88.7183 1259.62 87.4325 1261.78 86.8432C1265.38 85.8789 1265.8 85.8789 1268.16 86.6825C1269.6 87.1647 1272.07 88.9862 1273.82 90.7005C1278.66 95.7364 1280.51 95.7364 1280.31 90.8613C1280.2 86.9504 1278.56 83.7895 1275.78 81.968C1274.03 80.7894 1272.9 80.5751 1269.91 80.6823C1266.62 80.843 1266.1 80.6823 1265.8 79.6108C1265.38 78.1107 1264.77 78.1643 1261.16 79.7715Z" fill="black"/>
<path d="M732.48 81.7537C732.48 84.218 745.036 90.0576 754.093 91.7719C762.017 93.3255 766.443 94.5577 766.443 95.2006C766.443 95.5756 765.002 96.915 763.252 98.2007C759.444 100.879 760.165 101.737 766.443 101.683C771.074 101.576 773.647 100.719 773.647 99.2186C773.647 96.8078 776.734 95.0935 784.35 93.1648C788.467 92.1469 792.481 91.2897 793.201 91.2897C797.215 91.2897 811.109 86.5217 809.565 85.6645C809.256 85.5574 804.625 85.9324 799.273 86.5217C782.601 88.3432 782.189 88.3432 780.851 87.0574L779.719 85.8788L776.632 87.2717C772.824 88.8789 772.412 88.8789 766.443 87.486C763.87 86.8967 756.048 85.3431 748.947 84.0573C741.846 82.8251 735.259 81.5929 734.333 81.3786C733.098 81.1108 732.48 81.2179 732.48 81.7537Z" fill="black"/>
<path d="M983.083 82.7715C980.098 83.7894 977.834 83.843 972.482 82.9858C970.424 82.6108 969.189 83.0929 964.249 85.718C961.058 87.486 957.353 89.9504 956.016 91.2897L953.648 93.7005L957.045 91.7719C960.853 89.5753 964.661 88.3967 966.101 88.8789C968.057 89.5218 967.028 91.2897 964.043 92.4683C960.544 93.8077 960.235 94.2362 962.602 94.7184C965.998 95.4149 971.865 94.4505 973.614 92.8969C975.467 91.2897 980.613 89.8968 982.98 90.3789C983.803 90.5397 987.199 92.6826 990.493 95.147C993.889 97.6114 997.285 99.6472 998.211 99.7543C1000.48 99.9686 1001.09 97.3435 999.858 92.4147C998.623 87.3253 995.947 84.4323 992.139 84.218C990.39 84.1108 988.846 83.5751 988.228 82.8251C986.993 81.4322 986.993 81.4322 983.083 82.7715Z" fill="black"/>
<path d="M808.33 89.5219C806.889 90.7541 806.58 93.647 807.609 95.1471C808.433 96.3257 808.433 97.6115 807.918 99.058C806.992 101.147 806.786 101.201 803.081 101.094C799.891 100.987 799.273 101.147 799.582 101.897C799.788 102.54 801.023 102.808 803.493 102.862C805.448 102.915 807.609 102.969 808.227 103.022C808.845 103.022 810.697 104.094 812.344 105.326C819.857 111.112 824.694 110.844 822.121 104.897C821.092 102.594 821.092 101.79 822.121 101.147C822.738 100.719 823.15 100.344 822.944 100.237C822.738 100.183 821.606 99.8616 820.474 99.5401C819.342 99.2187 818.313 98.3615 818.107 97.665C817.078 92.6291 810.697 87.3789 808.33 89.5219Z" fill="black"/>
<path d="M1254.37 102.112C1256.94 104.737 1266.52 110.148 1271.46 111.701C1273.31 112.291 1274.85 113.148 1274.85 113.523C1274.85 113.898 1272.69 115.184 1270.12 116.416C1263.53 119.416 1266.31 120.809 1273.72 118.13C1277.94 116.684 1287.41 113.951 1294.41 112.183C1307.27 108.969 1306.76 109.237 1300.99 109.076C1298.32 108.969 1295.44 108.648 1294.71 108.38C1293.89 108.005 1292.86 108.005 1291.42 108.38C1287.72 109.451 1284.22 109.023 1280.1 107.094C1277.94 106.076 1273.41 104.63 1270.12 103.826C1266.72 103.076 1261.88 101.897 1259.21 101.147C1252.52 99.3793 1251.8 99.4865 1254.37 102.112Z" fill="black"/>
<path d="M0.741943 113.201C0.741943 115.612 1.05069 115.934 4.24111 116.951C6.09362 117.594 8.35778 118.077 9.28404 118.077C11.5482 118.077 15.2532 119.844 14.327 120.487C13.9153 120.809 11.9599 121.666 10.0045 122.362C8.04903 123.059 6.19653 123.702 5.9907 123.809C4.7557 124.291 9.6957 126.113 12.989 126.434C15.0474 126.648 17.4145 126.97 18.4436 127.238C19.3699 127.505 21.4282 127.452 23.2807 127.13C25.8536 126.648 26.4711 126.22 26.4711 125.041C26.4711 122.791 31.1024 121.291 39.9532 120.648C43.967 120.38 47.8778 120.273 48.7012 120.434C49.7303 120.648 50.142 121.666 50.142 123.702V126.648H54.2587H58.2724L58.5812 123.541L58.8899 120.487L63.5212 120.327C69.4903 120.112 73.4012 121.452 80.2966 125.845C85.6483 129.327 87.192 129.916 87.192 128.47C87.192 127.238 78.4441 117.701 75.2537 115.559C72.8866 113.951 72.1662 113.791 67.1233 113.791C62.0803 113.791 61.257 113.63 59.1987 112.183L56.9345 110.576L54.6703 112.023C52.5091 113.469 52.4062 113.469 47.0545 112.826C41.1882 112.13 41.2911 112.13 34.6016 114.916C31.3082 116.255 26.9857 115.88 25.1332 113.951C23.8982 112.773 23.5895 112.719 22.4574 113.469C20.399 114.755 17.4145 114.541 9.28404 112.451C5.16736 111.433 1.56528 110.576 1.25653 110.576C0.947777 110.576 0.741943 111.755 0.741943 113.201Z" fill="black"/>
<path d="M1057.39 112.398C1055.23 112.826 1051.63 113.791 1049.46 114.541C1047.2 115.291 1044.73 115.934 1043.91 115.934C1041.85 115.934 1037.11 119.041 1037.73 119.952C1038.66 121.13 1041.64 120.916 1047.41 119.416C1052.86 117.969 1056.67 117.755 1059.86 118.612C1062.64 119.416 1062.33 120.702 1058.52 122.738L1055.33 124.452L1058.11 125.041C1059.65 125.309 1063.25 125.577 1066.03 125.577C1070.97 125.577 1071.08 125.523 1071.08 124.023C1071.08 122.416 1072.72 121.184 1076.33 120.22C1079.21 119.362 1084.15 120.916 1086 123.22C1087.13 124.72 1087.95 125.095 1089.81 124.934C1091.97 124.773 1092.17 124.452 1092.48 121.559C1092.69 119.309 1092.17 117.809 1090.94 116.469C1089.29 114.809 1088.68 114.594 1085.59 114.755C1083.74 114.809 1081.57 114.648 1080.96 114.38C1080.24 114.059 1079.21 114.059 1078.28 114.326C1075.4 115.291 1070.56 114.862 1066.55 113.255C1061.92 111.433 1062.53 111.487 1057.39 112.398Z" fill="black"/>
<path d="M437.315 123.22C436.08 123.648 435.051 124.505 435.051 125.095C435.051 127.077 433.095 128.256 429.802 128.256C427.023 128.256 426.714 128.416 427.023 129.702C427.332 130.988 427.847 131.202 431.037 131.363C434.227 131.524 434.948 131.845 436.903 133.881C438.756 135.917 439.579 136.292 442.152 136.292C445.548 136.292 446.269 135.649 446.474 132.274C446.68 129.327 443.387 123.488 441.226 122.898C440.094 122.577 438.756 122.684 437.315 123.22Z" fill="black"/>
<path d="M661.982 135.756C664.452 137.952 680.404 146.256 684.109 147.167C687.917 148.131 687.814 149.792 684.006 152.096C681.228 153.703 680.919 154.132 682.154 154.56C686.374 156.007 691.314 155.471 691.314 153.596C691.314 153.167 692.446 152.31 693.681 151.614C695.945 150.435 696.665 150.381 705.413 150.596C715.087 150.917 730.422 150.381 730.422 149.792C730.422 149.256 712.411 146.578 706.442 146.149C703.664 145.935 701.296 145.506 701.091 145.185C699.65 142.506 699.65 142.56 696.974 143.47C693.578 144.649 693.372 144.596 688.123 142.506C685.653 141.488 679.581 139.56 674.538 138.22C669.598 136.881 664.349 135.327 662.806 134.845L660.027 133.881L661.982 135.756Z" fill="black"/>
<path d="M852.173 137.524C850.835 137.792 849.805 138.22 849.805 138.488C849.805 138.863 854.128 140.845 857.627 142.024C859.48 142.667 859.48 142.72 857.421 143.631C856.186 144.167 853.716 145.024 851.864 145.56C848.57 146.471 848.57 146.524 850.32 147.542C852.893 149.042 856.907 148.828 861.126 147.006C863.082 146.096 865.449 145.399 866.478 145.399C867.404 145.399 871.624 147.006 875.74 148.935C882.739 152.149 894.78 156.114 897.868 156.114C900.029 156.114 899.411 154.828 896.221 152.524C894.574 151.346 892.207 149.31 890.972 148.078C889.737 146.846 886.958 144.81 884.694 143.524C880.372 141.06 879.754 139.827 882.327 138.327C883.974 137.47 883.974 137.363 882.327 137.042C881.401 136.881 879.24 136.988 877.593 137.363C875.843 137.738 872.962 137.845 870.595 137.631C868.33 137.47 864.523 137.577 862.155 137.899C858.656 138.381 857.524 138.381 856.186 137.738C854.848 137.149 853.819 137.095 852.173 137.524Z" fill="black"/>
<path d="M739.684 142.399C737.111 142.774 733.921 143.417 732.583 143.792C730.113 144.435 730.113 144.488 731.966 145.185C732.995 145.613 735.362 145.935 737.111 145.935C745.036 145.935 759.238 149.739 759.238 151.881C759.238 152.417 757.592 153.864 755.533 154.989C752.034 157.025 752.034 157.132 753.99 157.667C756.357 158.364 760.268 158.417 761.914 157.828C762.532 157.614 763.87 156.65 764.899 155.685C766.031 154.774 767.266 153.971 767.781 153.971C768.295 153.971 770.251 153.007 772.309 151.881C776.323 149.524 780.131 148.828 784.144 149.631C787.849 150.328 789.496 149.256 788.673 146.792C787.643 144.113 785.791 143.47 780.954 144.328C778.793 144.703 776.426 144.81 775.808 144.649C775.191 144.435 773.441 144.756 772 145.345C770.456 145.988 768.707 146.471 767.986 146.471C767.369 146.471 764.693 145.399 762.12 144.06C757.489 141.702 757.283 141.649 750.902 141.702C747.3 141.702 742.257 142.024 739.684 142.399Z" fill="black"/>
<path d="M1094.34 143.095C1095.06 143.953 1095.78 144.971 1095.78 145.399C1095.78 146.417 1102.16 151.507 1106.38 153.81L1109.46 155.525L1106.99 156.596C1105.66 157.185 1103.39 158.15 1101.95 158.739L1099.38 159.757L1103.19 160.668C1108.44 162.007 1112.24 161.418 1112.24 159.382C1112.24 158.257 1113.27 157.4 1115.64 156.328C1120.17 154.346 1124.08 150.703 1122.33 150.167C1121.61 149.899 1120.58 149.953 1120.06 150.221C1117.59 151.507 1114.4 150.703 1109.46 147.703C1104.73 144.81 1096.7 141.649 1094.13 141.649C1093.1 141.649 1093.2 142.024 1094.34 143.095Z" fill="black"/>
<path d="M464.176 145.881C462.221 146.738 461.192 146.792 456.766 146.31C451.826 145.828 451.517 145.881 447.504 147.596C445.24 148.613 443.284 149.739 443.284 150.167C443.284 150.596 441.946 152.203 440.197 153.81C438.55 155.364 437.109 156.81 437.109 156.971C437.109 157.185 439.682 156.06 442.77 154.56C446.475 152.739 449.047 151.828 450.077 152.042C451.003 152.203 452.547 152.364 453.679 152.364C456.252 152.364 456.149 153.435 453.473 155.792L451.312 157.667L453.782 157.989C458.001 158.525 461.089 157.56 462.324 155.257C463.662 152.631 467.572 151.346 471.689 152.096C473.336 152.417 476.835 154.078 479.614 155.846C482.29 157.614 484.965 159.114 485.48 159.221C487.847 159.65 485.48 152.792 482.187 149.417C479.408 146.685 476.938 145.828 472.718 146.203C469.837 146.524 468.91 146.417 468.396 145.721C467.572 144.649 466.955 144.649 464.176 145.881Z" fill="black"/>
<path d="M1056.26 149.685C1054.2 150.381 1052.55 150.542 1050.6 150.221C1046.69 149.685 1042.88 150.649 1036.08 153.917C1029.91 156.917 1029.7 157.4 1035.67 155.31C1040 153.757 1041.13 153.703 1043.8 154.721C1045.76 155.471 1045.55 156.06 1042.67 158.096C1041.02 159.275 1041.02 159.328 1043.49 159.328C1044.83 159.328 1047.1 158.739 1048.33 158.042C1050.9 156.65 1053.79 156.06 1055.54 156.596C1056.05 156.81 1057.18 158.203 1058.01 159.757L1059.34 162.543L1062.02 160.935C1063.98 159.757 1064.8 158.525 1065.42 155.899C1066.03 152.792 1065.83 152.364 1063.98 151.881C1062.84 151.56 1061.81 150.756 1061.61 150.114C1061.2 148.613 1059.86 148.506 1056.26 149.685Z" fill="black"/>
<path d="M151 153.917C154.294 155.953 157.896 157.346 163.556 158.846C167.981 159.971 172.304 160.935 173.127 160.935C175.494 160.935 180.846 162.489 180.846 163.132C180.846 163.453 179.714 164.471 178.273 165.436C174.98 167.686 175.083 168.168 178.582 168.864C187.844 170.793 192.784 170.739 191.652 168.757C190.211 166.186 189.903 164.257 190.932 163.936C191.549 163.775 196.695 163.989 202.459 164.471C212.339 165.328 213.368 165.328 223.351 164.418C236.318 163.239 239.509 162.007 228.497 162.489C227.262 162.543 222.219 161.846 217.176 160.935C212.236 160.025 205.134 158.9 201.429 158.471C193.711 157.507 192.167 156.971 192.167 155.257C192.167 153.382 190.211 153.167 187.433 154.721C184.345 156.382 183.831 156.435 175.494 155.042C171.995 154.453 167.57 153.971 165.717 153.971C162.836 153.971 153.985 152.685 148.427 151.506C147.192 151.239 148.016 152.096 151 153.917Z" fill="black"/>
<path d="M1218.86 157.614C1218.56 157.828 1223.7 161.043 1230.19 164.686C1245.11 173.043 1245.11 173.043 1241.3 174.811C1239.65 175.561 1237.18 176.579 1235.74 177.061C1233.58 177.811 1233.38 178.025 1234.61 178.829C1235.43 179.311 1237.49 179.686 1239.55 179.686C1242.33 179.686 1243.77 179.258 1246.34 177.758C1248.2 176.686 1250.67 175.615 1251.9 175.347C1253.14 175.132 1255.4 173.847 1256.94 172.614C1258.49 171.329 1261.68 169.293 1263.94 168.007C1266.21 166.775 1267.54 165.757 1266.93 165.757C1266.21 165.757 1265.38 165.971 1265.07 166.293C1264.77 166.561 1263.53 166.828 1262.4 166.828C1261.27 166.828 1259.21 167.204 1257.87 167.686C1254.27 168.918 1251.28 168.275 1247.58 165.65C1245.83 164.418 1242.54 162.596 1240.17 161.685C1234.2 159.328 1220.1 156.65 1218.86 157.614Z" fill="black"/>
<path d="M606.922 159.168C606.922 160.185 621.227 165.061 627.299 166.186C633.166 167.204 633.68 168.114 629.461 170.364C626.579 171.918 626.27 172.293 627.505 172.775C628.329 173.043 630.901 173.204 633.166 173.15C636.871 172.99 637.282 172.829 637.591 171.382C638.106 169.239 640.267 168.114 646.545 166.561C652.823 164.954 661.777 161.953 661.056 161.632C660.747 161.471 657.454 161.9 653.749 162.543C647.471 163.614 646.751 163.668 645.207 162.864C643.766 162.114 643.457 162.114 641.811 162.864C640.267 163.614 639.135 163.614 633.989 163.078C628.843 162.489 614.229 160.185 608.774 159.06C607.745 158.846 606.922 158.9 606.922 159.168Z" fill="black"/>
<path d="M870.389 171.329C870.389 172.186 872.138 173.472 875.329 175.132C882.327 178.615 884.385 179.258 892.001 180.543C895.603 181.186 898.794 181.936 899 182.258C899.205 182.579 897.353 183.597 894.883 184.508C892.413 185.419 890.457 186.436 890.457 186.704C890.457 187.026 892.104 187.722 894.162 188.365C897.25 189.276 898.897 189.383 902.705 189.115C907.439 188.74 907.439 188.687 907.233 186.865C907.13 185.74 907.645 184.669 908.777 184.133C910.32 183.329 911.144 183.276 916.495 183.865C924.317 184.722 930.389 184.669 937.182 183.704C947.37 182.311 946.547 181.99 927.096 179.472C917.216 178.186 915.055 177.49 915.466 175.829C915.775 174.115 914.334 173.525 912.379 174.49C909.291 176.097 906.512 176.525 902.499 175.99C893.648 174.704 879.754 172.239 875.74 171.168C870.492 169.775 870.389 169.775 870.389 171.329Z" fill="black"/>
<path d="M156.97 178.99C154.809 179.418 153.059 180.008 153.059 180.276C153.059 180.49 151.001 181.347 148.531 182.097C146.164 182.847 143.282 183.919 142.253 184.508C140.4 185.579 140.503 185.579 143.797 185.579C145.546 185.579 149.869 185.204 153.265 184.776C159.234 183.919 159.44 183.972 164.997 185.258C168.085 186.008 170.555 186.811 170.555 187.026C170.555 187.294 168.702 188.044 166.438 188.794C164.174 189.544 162.322 190.294 162.322 190.454C162.322 191.097 168.599 193.615 170.967 193.937C172.304 194.097 174.877 194.151 176.833 194.044C180.229 193.883 180.229 193.883 180.023 191.419C179.612 188.204 181.052 187.562 186.61 188.419C190.624 189.008 197.21 192.062 201.121 195.062C201.945 195.758 203.282 196.294 204.003 196.294C209.252 196.294 200.812 182.579 195.461 182.258C194.535 182.204 191.859 182.151 189.595 182.151C185.889 182.097 185.478 181.936 185.169 180.597C184.757 178.722 182.39 178.186 179.92 179.365C177.553 180.49 175.495 180.436 172.304 179.15C169.114 177.865 162.424 177.758 156.97 178.99Z" fill="black"/>
<path d="M581.192 184.401C581.192 185.847 595.498 193.776 602.393 196.133C605.789 197.258 605.481 198.758 601.57 200.58C597.556 202.508 598.482 203.258 605.172 203.633L609.7 203.901L610.318 201.812C611.141 199.187 614.229 197.633 620.301 196.83C626.682 195.972 636.767 193.562 636.767 192.972C636.767 192.383 624.52 192.704 620.507 193.347C618.551 193.669 618.037 193.508 617.522 192.597C616.905 191.419 615.67 191.151 614.64 192.008C613.302 193.133 608.671 192.49 604.76 190.669C602.599 189.651 596.63 187.722 591.484 186.383C581.604 183.811 581.192 183.704 581.192 184.401Z" fill="black"/>
<path d="M734.23 186.329C723.321 187.561 723.423 189.383 734.538 190.347C747.3 191.419 754.71 194.258 752.24 197.098C751.623 197.794 750.079 198.544 748.741 198.758C746.58 199.08 743.904 200.419 743.801 201.169C743.801 201.33 745.551 201.919 747.712 202.401C752.652 203.58 756.871 205.509 757.386 206.794C757.592 207.384 758.724 207.866 759.959 207.973C761.4 208.08 763.664 209.366 766.34 211.616C768.707 213.545 770.559 215.313 770.559 215.58C770.559 215.848 768.398 216.598 765.825 217.241C763.252 217.938 760.988 218.634 760.782 218.848C759.856 219.598 764.59 221.099 768.81 221.313C773.029 221.581 773.338 221.474 774.573 219.92C775.293 219.063 777.455 217.831 779.307 217.241C781.263 216.652 784.041 215.259 785.482 214.08C787.541 212.473 789.29 211.777 792.686 211.295C798.45 210.437 803.493 208.83 803.493 207.812C803.493 206.955 802.669 206.848 797.935 207.009C793.613 207.169 795.054 205.723 799.479 205.509C802.258 205.401 805.036 205.884 810.697 207.544C818.416 209.848 825.105 210.812 825.105 209.58C825.105 208.455 816.666 202.937 812.344 201.169C808.947 199.776 807.712 199.562 804.831 199.83C802.361 200.098 800.817 199.937 799.479 199.294C797.832 198.49 797.524 198.49 795.774 199.508C793.407 200.901 789.702 200.848 785.276 199.455C782.189 198.437 781.366 198.383 778.484 198.973C776.631 199.348 773.544 200.258 771.486 200.955C767.883 202.187 767.472 202.187 763.973 201.437C759.033 200.366 759.238 199.241 764.899 196.294L769.53 193.883L773.235 194.955C776.94 195.973 776.94 195.973 778.381 194.955C780.336 193.615 780.233 191.472 778.175 189.972C776.837 188.901 775.911 188.794 771.588 189.008C768.913 189.115 765.413 189.651 763.87 190.187L761.194 191.097L756.254 188.312C751.52 185.633 751.211 185.579 745.756 185.633C742.669 185.633 737.523 185.954 734.23 186.329ZM781.263 204.651C782.189 204.812 782.909 205.401 782.909 205.991C782.909 207.116 779.307 208.294 777.146 207.866C775.499 207.544 773.647 205.401 774.367 204.705C774.882 204.223 778.998 204.223 781.263 204.651Z" fill="black"/>
<path d="M316.697 201.705C316.697 203.098 325.959 206.741 335.736 209.205C347.469 212.152 348.807 213.116 343.867 214.884C337.28 217.241 333.884 219.17 334.604 220.134C335.119 220.884 336.045 221.045 339.338 220.777C341.499 220.616 344.793 220.134 346.645 219.652C349.836 218.848 350.042 218.848 353.335 220.134C358.995 222.384 359.819 224.045 357.349 227.474C356.422 228.706 358.687 228.706 363.524 227.527C366.2 226.885 367.126 226.295 366.92 225.492C366.508 223.67 370.213 219.384 372.683 218.956C373.815 218.741 378.138 218.527 382.049 218.527C388.532 218.527 389.253 218.42 389.253 217.456C389.253 216.063 383.078 213.973 378.858 213.973C376.491 213.973 374.33 214.509 371.963 215.58C368.155 217.295 366.508 217.563 365.788 216.491C365.479 216.009 364.862 216.116 363.318 216.813C361.362 217.723 361.157 217.67 358.481 216.598C351.379 213.705 352.717 212.42 366.508 208.937C371.654 207.652 376.8 206.205 377.932 205.777C379.99 204.919 379.99 204.919 377.623 204.866C376.285 204.866 371.963 205.241 367.949 205.723C361.054 206.527 360.539 206.527 359.304 205.669C358.069 204.812 357.76 204.866 354.776 205.991L351.585 207.277L344.69 205.991C330.076 203.259 316.697 201.223 316.697 201.705Z" fill="black"/>
<path d="M481.878 207.384C486.921 209.902 503.285 214.83 510.386 215.902C515.841 216.759 516.149 217.241 513.782 220.241C511.93 222.545 512.238 222.813 515.943 222.17C517.796 221.849 519.134 221.152 519.546 220.134C520.781 217.777 525.412 215.741 532.719 214.241C536.424 213.491 541.364 212.259 543.628 211.562L547.745 210.223H543.113C540.541 210.223 536.836 210.491 534.88 210.812C532.925 211.134 529.426 211.509 527.161 211.562C524.897 211.67 521.707 211.884 520.163 212.098C518.105 212.366 515.635 212.098 511.415 211.134C508.225 210.384 501.123 209.259 495.772 208.669C490.42 208.08 484.863 207.437 483.422 207.223C481.775 207.009 481.26 207.062 481.878 207.384Z" fill="black"/>
<path d="M576.356 210.491C572.136 211.402 563.697 214.402 563.697 214.938C563.697 215.152 567.608 215.098 572.445 214.83C580.575 214.348 581.501 214.402 584.074 215.42C587.882 216.866 588.088 218.473 584.795 221.045C582.119 223.134 581.913 223.188 577.899 222.866C575.635 222.652 572.445 222.17 570.798 221.688C567.299 220.777 564.932 221.152 566.887 222.331C568.122 223.081 583.045 228.331 587.368 229.51C588.808 229.885 591.999 230.474 594.572 230.849C600.438 231.599 601.056 232.938 596.733 235.563C594.983 236.581 593.543 237.653 593.543 237.974C593.543 238.563 600.953 239.26 603.114 238.831C603.937 238.671 604.966 237.706 605.275 236.742C606.51 233.42 608.98 232.938 626.682 232.563C635.327 232.402 643.869 231.974 645.516 231.652C648.603 231.01 648.603 231.01 641.399 229.992C637.488 229.402 630.284 228.599 625.447 228.277L616.699 227.634L616.39 225.867C615.979 223.831 615.361 223.777 611.553 225.277C608.054 226.777 603.731 226.724 597.453 225.17C592.822 224.045 592.513 223.831 592.513 222.009C592.513 219.706 595.292 218.098 598.791 218.366C600.438 218.473 602.085 219.331 603.937 221.152C605.378 222.652 607.025 223.884 607.642 223.991C609.083 224.259 610.009 222.331 610.009 218.902C610.009 214.884 608.877 213.973 603.731 213.973C600.438 213.973 599.409 213.759 598.997 212.902C598.38 211.67 598.174 211.67 595.601 212.366C594.16 212.741 592.719 212.527 589.323 211.295C584.28 209.527 581.296 209.366 576.356 210.491Z" fill="black"/>
<path d="M981.333 222.92L981.024 224.42L973.203 224.259C966.822 224.099 964.455 224.259 960.853 225.17C958.486 225.813 955.913 226.295 955.192 226.295C954.575 226.295 952.928 226.777 951.59 227.313C949.12 228.331 949.12 228.331 961.058 228.331C977.422 228.331 979.686 228.813 977.319 231.974C976.805 232.778 976.599 233.528 976.908 233.688C977.731 234.171 982.568 231.545 982.568 230.635C982.568 230.152 983.289 229.295 984.112 228.76C985.964 227.474 986.067 224.742 984.421 222.813C982.877 221.045 981.745 221.099 981.333 222.92Z" fill="black"/>
<path d="M875.02 222.867C873.373 223.242 870.903 223.563 869.565 223.617C868.124 223.617 864.934 224.742 861.538 226.402C855.877 229.188 854.848 230.367 859.479 228.76C864.625 227.045 866.169 228.385 861.435 230.42C858.965 231.438 858.759 231.706 860.097 232.188C863.493 233.367 870.389 232.67 870.389 231.117C870.389 229.778 872.962 228.813 875.535 229.242C876.77 229.456 880.886 231.117 884.591 232.938C888.399 234.76 894.471 237.385 898.176 238.778C909.188 242.903 908.571 242.367 904.763 245.314C901.778 247.618 902.602 248.796 906.512 247.671C909.394 246.921 916.392 243.332 918.965 241.296C919.995 240.546 920.818 238.939 920.818 237.653C920.818 236.421 921.641 234.706 922.567 233.903C924.008 232.778 923.494 232.885 920.509 234.438C915.055 237.278 912.379 237.492 907.645 235.563C905.483 234.653 901.984 233.474 899.72 232.831C897.456 232.242 893.442 230.42 890.766 228.813C888.193 227.26 884.591 225.599 882.842 225.224C880.886 224.849 879.651 224.152 879.651 223.563C879.651 222.224 878.622 222.063 875.02 222.867Z" fill="black"/>
<path d="M1139.52 224.42C1137.25 225.17 1112.86 227.849 1106.99 227.956C1100.41 228.063 1112.96 229.402 1121.3 229.456C1125.31 229.51 1128.71 229.724 1128.71 229.992C1128.71 230.26 1127.06 231.224 1125.11 232.135C1122.12 233.474 1121.71 233.849 1123.05 234.117C1126.14 234.76 1130.87 233.795 1134.68 231.706C1138.08 229.885 1139.21 229.563 1144.66 229.242C1150.73 228.92 1164.52 226.992 1166.07 226.295C1166.89 225.92 1155.98 225.224 1148.68 225.224C1145.79 225.224 1144.15 224.956 1143.74 224.42C1143.02 223.456 1142.19 223.456 1139.52 224.42Z" fill="black"/>
<path d="M1261.99 248.153C1261.16 248.582 1265.79 250.939 1267.44 250.939C1268.26 250.939 1270.22 251.528 1271.87 252.225C1275.78 253.939 1285.25 255.761 1290.29 255.761C1295.64 255.761 1295.64 256.671 1290.29 259.297C1288.02 260.422 1286.17 261.493 1286.17 261.761C1286.17 262.297 1293.17 263.261 1294.82 262.94C1295.54 262.779 1296.77 262.082 1297.6 261.332C1298.32 260.582 1300.27 259.457 1301.92 258.868C1304.59 257.85 1305.42 257.85 1310.56 258.386C1313.75 258.707 1316.74 258.975 1317.25 258.975C1317.66 258.975 1318.08 257.689 1318.08 256.136C1318.08 253.403 1317.87 253.243 1314.78 252.493C1312 251.85 1311.49 251.475 1311.7 250.243C1312.11 248.475 1310.36 248.368 1307.17 249.921C1304.9 251.046 1304.49 251.046 1289.16 250.457C1279.89 250.082 1271.15 249.439 1267.96 248.85C1264.97 248.314 1262.3 247.993 1261.99 248.153Z" fill="black"/>
<path d="M1033.82 271.136C1031.04 272.69 1026.82 276.065 1026.82 276.762C1026.82 277.03 1027.95 277.19 1029.29 277.19C1033.2 277.19 1033.72 278.262 1030.53 279.708C1027.34 281.101 1025.79 280.94 1025.79 279.172C1025.79 278.208 1025.59 278.155 1024.76 278.797C1023.32 279.976 1023.53 281.476 1025.18 281.476C1025.9 281.476 1027.13 281.798 1027.75 282.226C1029.29 283.19 1036.81 283.673 1039.58 283.03C1040.72 282.708 1042.47 281.744 1043.29 280.78C1046.38 277.512 1048.54 278.315 1059.04 286.833C1061.71 288.976 1063.05 289.03 1064.18 286.941C1065.21 285.119 1064.18 277.619 1062.64 275.851C1062.02 275.154 1059.55 274.083 1057.08 273.44C1053.99 272.744 1052.55 272.047 1052.55 271.351C1052.55 269.958 1050.6 269.69 1046.99 270.601C1044.32 271.351 1043.6 271.297 1040.51 270.547C1036.19 269.476 1036.91 269.422 1033.82 271.136Z" fill="black"/>
<path d="M761.297 273.869C761.297 274.351 762.223 275.69 763.252 276.708C764.385 277.833 765.002 279.172 764.693 279.815C764.282 280.726 764.59 280.94 766.855 280.94C771.28 280.94 777.558 279.387 778.175 278.047C779.307 275.637 776.22 273.333 774.162 275.047C773.132 275.958 770.868 275.637 767.678 274.244C764.076 272.69 761.297 272.529 761.297 273.869Z" fill="black"/>
<path d="M92.3379 283.351C92.3379 283.512 93.1612 284.262 94.0875 285.012C96.4546 286.94 94.4992 287.476 86.2658 287.048C78.0325 286.619 78.547 287.155 88.6329 289.726C97.8954 292.137 104.688 294.601 104.688 295.619C104.688 296.048 103.35 296.53 101.6 296.744C99.9537 296.959 98.3071 297.334 97.9983 297.602C96.3517 298.941 103.865 302.37 108.393 302.37C110.143 302.37 110.76 301.941 111.275 300.28C111.995 297.816 113.23 297.28 117.553 297.441C121.772 297.655 122.904 298.352 120.846 299.584C118.376 300.977 118.685 301.673 121.772 302.048C125.271 302.53 128.05 301.995 129.388 300.709C130.726 299.423 132.681 299.423 140.194 300.762C143.488 301.352 146.472 301.834 146.781 301.834C146.987 301.834 145.752 301.03 143.899 300.012C142.047 298.994 140.812 297.923 141.223 297.602C141.635 297.227 145.443 297.012 151.309 297.066C158.102 297.119 161.91 296.905 164.585 296.262C166.747 295.78 169.423 295.405 170.555 295.405C171.687 295.405 172.613 295.191 172.613 294.976C172.613 294.226 155.94 292.726 147.604 292.726C139.988 292.726 139.577 292.673 138.65 291.387C137.724 290.101 137.518 290.048 134.843 290.744C131.446 291.655 129.697 291.387 121.258 288.762C118.067 287.744 110.657 286.03 104.894 285.012C94.1904 283.083 92.3379 282.815 92.3379 283.351Z" fill="black"/>
<path d="M767.987 292.459C766.34 292.887 763.047 293.209 760.679 293.262C757.695 293.262 755.328 293.744 752.137 294.977L747.609 296.691L743.595 295.459C738.449 293.959 737.626 294.334 741.125 296.477C742.566 297.387 743.801 298.405 743.801 298.673C743.801 298.941 745.036 299.423 746.477 299.691C748.844 300.173 749.05 300.441 748.535 302.102C747.815 303.923 748.021 304.03 751.211 304.352C753.064 304.566 755.019 304.673 755.534 304.566C756.151 304.513 757.592 304.566 758.93 304.78C762.326 305.209 762.017 306.656 758.518 306.656C752.652 306.656 750.799 307.191 751.52 308.745C752.137 310.299 758.415 313.62 760.576 313.62C761.4 313.62 762.841 312.656 763.87 311.477C766.34 308.584 768.295 308.423 774.676 310.674C777.558 311.691 780.645 312.549 781.366 312.549C782.086 312.549 784.659 313.031 787.129 313.567C791.966 314.692 804.625 316.031 806.786 315.656C807.507 315.495 805.448 314.531 802.155 313.459C793.51 310.566 789.187 307.941 783.424 302.048C779.204 297.709 777.661 296.584 774.882 295.941C771.692 295.244 771.486 295.03 772.103 293.423C772.824 291.494 772.515 291.387 767.987 292.459Z" fill="black"/>
<path d="M888.502 292.137C888.193 292.351 885.415 293.262 882.327 294.066C876.975 295.459 876.358 295.512 872.035 294.869C869.463 294.494 866.272 294.334 864.831 294.548C861.641 294.976 848.056 299.691 844.763 301.512C842.395 302.798 842.395 302.905 844.248 302.905C845.277 302.905 849.394 302.155 853.408 301.298C862.258 299.316 866.478 298.887 869.257 299.637C871.83 300.387 871.933 301.03 869.977 303.013C867.919 304.995 869.668 304.995 875.638 302.959C881.504 300.977 884.797 299.316 884.797 298.298C884.797 297.28 889.12 296.423 893.339 296.637C896.015 296.744 896.735 296.477 897.559 295.298C898.382 294.119 898.176 293.637 896.633 292.726C894.78 291.655 889.531 291.226 888.502 292.137Z" fill="black"/>
<path d="M1307.48 298.137C1306.45 298.459 1304.39 298.566 1302.74 298.352C1300.79 298.137 1299.45 298.298 1298.52 298.887C1297.29 299.637 1295.85 299.745 1289.05 299.423C1281.95 299.102 1279.89 299.209 1271.66 300.548C1266.31 301.405 1262.91 302.155 1263.74 302.37C1264.46 302.584 1270.12 302.905 1276.4 303.12C1291.42 303.548 1291.94 303.87 1286.38 309.441C1286.17 309.709 1287.3 309.87 1288.95 309.87C1292.24 309.87 1296.46 308.531 1296.46 307.513C1296.46 307.138 1298.11 305.691 1300.07 304.352C1303.67 301.888 1304.29 301.727 1313.75 301.03C1317.36 300.709 1318.08 300.495 1318.08 299.423C1318.08 297.709 1311.59 296.905 1307.48 298.137Z" fill="black"/>
<path d="M1122.53 298.512C1122.53 299.423 1126.55 300.87 1132.52 302.102C1139.1 303.495 1140.13 304.352 1136.94 305.852C1135.81 306.388 1134.88 307.031 1134.88 307.298C1134.88 307.995 1139.1 307.245 1141.57 306.12C1142.71 305.584 1144.56 304.995 1145.79 304.834C1146.93 304.62 1150.32 303.548 1153.2 302.423L1158.56 300.387L1155.88 299.798C1153.82 299.262 1152.69 299.316 1150.22 299.959C1147.85 300.602 1146.31 300.655 1143.32 300.28C1140.24 299.852 1123.77 298.084 1122.84 298.084C1122.64 298.084 1122.53 298.298 1122.53 298.512Z" fill="black"/>
<path d="M1053.58 300.816C1053.58 302.477 1063.87 308.048 1073.44 311.477C1076.32 312.495 1078.79 313.62 1079 313.995C1079.21 314.317 1077.25 315.388 1074.68 316.299C1072 317.263 1070.25 318.227 1070.77 318.442C1072.11 319.085 1079.21 319.46 1079.93 318.924C1080.24 318.656 1082.91 317.799 1085.79 316.995C1088.78 316.245 1092.48 315.067 1094.03 314.37C1095.57 313.674 1098.66 312.87 1100.72 312.549C1102.88 312.281 1106.38 311.584 1108.64 310.995L1112.76 309.923L1106.99 309.87C1103.29 309.87 1100.72 309.602 1100 309.12C1098.86 308.423 1098.25 308.423 1095.26 309.12C1090.42 310.138 1090.42 310.138 1084.97 307.781C1082.4 306.655 1076.84 305.048 1072.83 304.245C1068.71 303.441 1063.46 302.209 1061.09 301.512C1056.56 300.12 1053.58 299.852 1053.58 300.816Z" fill="black"/>
<path d="M472.821 310.62C471.792 311.049 468.087 311.531 464.588 311.745C460.265 312.013 454.708 312.977 447.401 314.692C441.432 316.138 435.463 317.424 434.125 317.638C432.272 317.96 432.066 318.12 433.095 318.495C435.36 319.245 438.962 319.031 449.974 317.638C455.634 316.942 460.883 316.299 461.603 316.299C463.353 316.299 463.147 318.549 461.295 319.835C459.03 321.442 459.442 321.656 464.382 321.656C468.396 321.656 469.219 321.496 470.043 320.37C470.557 319.62 472.204 318.603 473.748 318.12C476.115 317.263 477.144 317.263 482.393 317.799C485.583 318.174 489.597 318.817 491.243 319.245C494.022 319.942 505.24 321.121 509.46 321.121C512.856 321.121 511.209 320.263 502.256 317.263C490.523 313.406 487.641 312.656 482.495 312.227C479.82 312.013 477.761 311.477 477.144 310.888C475.909 309.709 475.291 309.656 472.821 310.62Z" fill="black"/>
<path d="M407.263 321.763C407.263 322.674 412.203 326.478 413.438 326.478C414.776 326.478 424.759 334.567 424.759 335.692C424.759 336.335 423.421 336.817 420.539 337.193C417.04 337.675 416.628 337.943 417.555 338.585C418.275 339.014 420.025 339.335 421.363 339.335C423.009 339.335 424.141 339.71 424.45 340.407C424.862 341.211 425.891 341.478 428.773 341.478C433.404 341.478 434.33 341.103 432.889 339.764C430.522 337.514 435.256 334.675 444.313 332.907C447.606 332.264 451.209 331.246 452.238 330.657C454.09 329.585 454.09 329.585 449.459 329.96C446.886 330.174 442.975 330.817 440.814 331.407C437.521 332.317 436.389 332.371 434.536 331.835C433.198 331.46 431.654 331.353 431.037 331.514C430.419 331.728 428.876 330.978 427.435 329.853C424.141 327.121 416.32 323.585 409.63 321.71C407.778 321.228 407.263 321.228 407.263 321.763Z" fill="black"/>
<path d="M1150.53 323.317C1149.6 324.228 1147.24 326.049 1145.38 327.335C1142.6 329.264 1141.37 329.692 1138.69 329.692C1135.91 329.746 1135.71 329.799 1137.25 330.281C1139.62 331.031 1139.52 331.782 1136.43 334.139C1134.99 335.21 1134.27 336.121 1134.89 336.121C1137.25 336.121 1142.71 334.567 1145.18 333.174C1146.62 332.371 1149.09 331.353 1150.63 330.924C1152.59 330.389 1153.41 329.906 1153 329.317C1152.59 328.835 1153.1 327.871 1153.92 327.174C1156.6 325.138 1156.09 321.656 1153.31 321.656C1152.79 321.656 1151.45 322.406 1150.53 323.317Z" fill="black"/>
<path d="M535.395 323.103L526.132 323.317L534.365 324.817C548.156 327.389 557.007 329.478 557.007 330.282C557.007 330.71 555.052 331.353 552.582 331.782C548.465 332.424 547.642 332.371 540.746 331.085C528.602 328.728 528.911 328.728 530.866 330.282C533.028 331.996 541.57 335.371 547.024 336.657C552.067 337.835 552.479 338.8 548.568 340.353C546.098 341.264 545.892 341.532 547.23 342.014C549.597 342.818 552.993 342.657 554.537 341.639C556.698 340.3 564.932 337.728 567.093 337.728C569.872 337.728 580.472 336.067 579.752 335.746C579.443 335.585 576.355 335.425 572.753 335.371C566.578 335.317 566.27 335.264 565.961 333.925C565.755 333.067 566.475 332.21 567.813 331.567C569.769 330.657 571.313 330.549 579.958 330.71C596.63 331.085 598.688 331.032 598.894 330.496C599.1 330.174 596.218 329.21 592.513 328.246C587.265 326.906 584.486 326.531 579.443 326.531C575.944 326.478 572.753 326.263 572.445 325.942C572.136 325.674 569.872 325.46 567.505 325.513C564.417 325.621 562.256 325.299 559.992 324.388C556.39 323.049 550.935 322.728 535.395 323.103Z" fill="black"/>
<path d="M34.1899 323.853C32.6461 325.138 28.5295 325.353 20.0903 324.603C15.3561 324.174 9.0782 323.799 6.19653 323.799C1.05069 323.799 0.741943 323.853 0.741943 325.138C0.741943 326.692 1.87403 326.96 13.9153 328.621C18.1349 329.21 21.8399 329.799 22.1486 329.96C22.972 330.335 19.164 332.371 17.6203 332.371C16.8999 332.371 15.0474 332.639 13.4007 332.96L10.519 333.496L13.092 334.514C14.5328 335.103 17.3115 335.585 19.5757 335.585C21.6341 335.585 23.3836 335.8 23.3836 336.121C23.3836 336.389 25.2361 336.657 27.5003 336.657C32.2345 336.657 33.4695 335.8 31.617 333.978C30.5878 333.014 30.6907 332.639 31.9257 331.996C33.1607 331.299 34.3957 331.353 41.497 332.103C50.3478 333.067 69.6962 333.817 69.6962 333.228C69.6962 332.692 57.2433 329.799 46.5399 327.871C38.1007 326.371 37.2774 326.049 36.9687 324.71C36.6599 323.21 35.322 322.835 34.1899 323.853Z" fill="black"/>
<path d="M1026.82 326.264C1026.82 328.514 1036.81 333.014 1049.67 336.657C1054.1 337.889 1057.9 339.068 1058.11 339.282C1058.93 339.978 1057.29 340.782 1052.55 342.014L1048.02 343.246L1050.7 344.425C1053.37 345.604 1061.09 346.621 1063.05 345.979C1063.56 345.764 1064.7 344.8 1065.52 343.836C1067.37 341.532 1070.36 341.157 1078.59 342.175C1086.62 343.193 1086.1 343.139 1098.14 343.353C1104.22 343.461 1107.92 343.353 1107.61 343.032C1107.2 342.764 1106.38 342.55 1105.55 342.55C1104.83 342.55 1100.72 341.586 1096.6 340.461C1092.38 339.282 1086.31 337.943 1083.01 337.46C1077.97 336.71 1077.15 336.389 1077.56 335.478C1078.28 334.085 1075.91 333.71 1072.11 334.514C1069.43 335.103 1068.3 334.996 1062.12 333.496C1058.31 332.585 1051.63 331.407 1047.3 330.817C1036.91 329.371 1034.54 328.889 1030.32 327.228C1028.37 326.424 1026.82 326.049 1026.82 326.264Z" fill="black"/>
<path d="M1235.23 332.853C1234.92 333.174 1227.2 333.282 1216.91 333.121C1197.25 332.853 1197.15 332.96 1213.1 335.907C1216.81 336.603 1219.89 337.46 1220.1 337.889C1220.41 338.693 1216.39 340.461 1212.59 341.157C1210.94 341.478 1210.84 341.639 1212.07 342.014C1214.65 342.871 1217.84 342.603 1223.19 341.211C1226.17 340.461 1229.98 339.871 1232.24 339.925C1237.8 339.925 1250.56 342.121 1250.97 343.086C1251.08 343.568 1249.33 344.318 1246.34 345.068C1243.56 345.711 1239.14 347.425 1236.36 348.925C1232.04 351.229 1231.42 351.765 1232.24 352.729C1233.17 353.854 1233.38 353.854 1238.83 351.711C1241.92 350.479 1245.01 349.514 1245.83 349.514C1247.89 349.514 1251.08 350.8 1259.21 354.872C1268.47 359.533 1270.53 359.747 1267.54 355.783C1266.31 354.282 1264.66 351.979 1263.84 350.693C1262.81 349.139 1261.06 347.961 1258.8 347.211C1253.03 345.229 1254.68 342.657 1261.27 343.407C1266.41 343.943 1256.12 339.657 1246.55 337.193C1238.52 335.157 1237.8 334.889 1238.42 333.657C1238.93 332.692 1238.62 332.371 1237.49 332.371C1236.57 332.371 1235.64 332.585 1235.23 332.853Z" fill="black"/>
<path d="M725.894 336.603C725.482 336.871 726.511 337.568 728.055 338.05C740.919 342.121 748.329 345.604 749.564 348.175C750.079 349.193 749.462 349.997 747.3 351.443C744.419 353.318 743.698 353.907 741.846 355.783C740.919 356.8 734.23 357.015 729.599 356.211C727.54 355.836 726.408 356.211 721.88 358.729C718.895 360.336 715.396 362.694 714.058 363.979L711.588 366.337L717.454 363.819C723.629 361.193 727.129 360.711 729.393 362.104C730.525 362.801 730.113 363.283 727.026 364.944C721.159 368.104 721.983 370.408 729.084 370.408C735.053 370.408 747.918 376.033 747.918 378.658C747.918 379.516 746.58 380.534 743.801 381.659C741.537 382.569 739.89 383.587 740.302 383.855C740.919 384.391 747.506 385.944 749.05 385.944C749.564 385.944 750.902 384.98 752.034 383.802C753.167 382.623 754.607 381.659 755.122 381.659C755.739 381.659 757.592 380.909 759.444 380.051C763.252 378.123 767.266 377.962 772.206 379.569C774.162 380.159 776.117 380.534 776.734 380.319C777.249 380.159 777.764 378.98 777.764 377.694C777.764 374.48 775.294 373.355 769.016 373.837C765.208 374.158 764.384 374.051 764.384 373.408C764.384 372.337 763.87 372.337 760.885 373.355C757.695 374.48 756.151 374.051 752.858 371.212C750.594 369.337 749.256 368.747 745.654 368.265C738.346 367.194 736.597 366.712 736.597 365.694C736.597 364.194 739.89 362.908 743.595 362.908C747.609 362.908 750.697 364.515 752.137 367.462C754.71 372.39 757.18 371.64 757.18 365.854C757.18 363.336 756.563 361.461 755.328 360.229C753.784 358.568 753.064 358.354 749.256 358.193C744.933 358.033 744.83 357.979 744.83 356.158C744.83 354.872 745.345 354.336 746.374 354.336C747.3 354.336 748.535 353.747 749.153 352.997C749.976 351.979 751.108 351.657 753.578 351.657C757.489 351.657 759.444 350.639 761.914 347.371C764.179 344.211 764.796 343.943 772.103 342.657C776.734 341.853 778.381 341.318 778.587 340.46C779.204 338.532 774.573 338.478 767.266 340.353C763.664 341.318 760.062 342.336 759.136 342.657C756.666 343.568 754.402 342.871 752.137 340.514C750.697 339.014 748.947 338.157 746.168 337.568C741.022 336.496 726.82 335.8 725.894 336.603Z" fill="black"/>
<path d="M1186.34 346.621C1184.9 346.943 1182.12 347.639 1180.17 348.068C1176.67 348.871 1164.73 354.068 1164.73 354.818C1164.73 355.032 1167.2 355.032 1170.29 354.872C1174.1 354.657 1176.77 354.122 1179.04 353.104C1180.89 352.3 1183.05 351.657 1183.87 351.657C1184.8 351.657 1189.43 352.729 1194.37 354.068C1199.31 355.354 1204.66 356.693 1206.21 357.015C1208.68 357.497 1209.09 357.818 1208.78 359.265C1208.47 360.926 1208.16 361.033 1204.35 361.193C1197.66 361.408 1196.74 361.997 1202.3 362.426C1208.98 362.908 1221.33 363.015 1221.33 362.533C1221.33 362.372 1220.61 361.783 1219.69 361.247C1218.35 360.497 1218.35 360.068 1219.28 359.158C1219.89 358.515 1220.2 357.336 1219.79 356.586C1218.25 353.372 1211.04 351.282 1211.04 354.015C1211.04 356.318 1209.19 356.104 1203.43 353.157C1200.44 351.55 1196.22 349.836 1194.16 349.246C1192.11 348.657 1190.46 347.8 1190.46 347.264C1190.46 345.979 1189.33 345.818 1186.34 346.621Z" fill="black"/>
<path d="M1312.31 353.479C1304.8 354.55 1301.71 356.907 1308.09 356.8C1312.31 356.747 1318.08 354.925 1318.08 353.693C1318.08 352.622 1318.18 352.622 1312.31 353.479Z" fill="black"/>
<path d="M591.999 356.64C579.958 358.461 575.429 360.015 582.016 360.122C592.925 360.39 602.805 361.247 606.716 362.265C611.553 363.604 612.068 364.676 608.877 366.444C603.834 369.229 612.582 369.819 617.728 367.033C626.167 362.586 628.843 361.729 633.166 362.051C635.533 362.211 638.209 362.479 639.135 362.693C640.576 362.961 640.885 362.693 640.885 361.301C640.885 360.336 640.061 358.89 639.135 358.033C636.871 356.104 633.577 355.997 628.02 357.818C622.565 359.533 620.507 359.479 615.155 357.497C609.289 355.247 602.908 355.032 591.999 356.64Z" fill="black"/>
<path d="M215.838 359.158C215.015 359.372 211.824 359.747 208.737 359.961C204.826 360.229 202.356 360.765 199.989 361.89L196.798 363.39L200.709 363.444C204.826 363.444 205.752 364.354 202.973 365.586C200.4 366.712 201.224 367.676 204.929 368.051C209.148 368.426 210.486 368.104 211.721 366.336C213.059 364.622 215.426 364.194 217.793 365.265C218.823 365.747 220.058 366.122 220.572 366.122C221.087 366.122 224.689 367.569 228.497 369.337C232.408 371.105 235.907 372.551 236.421 372.551C237.862 372.551 234.363 367.89 230.864 365.158C229.114 363.819 226.027 362.104 224.071 361.461C222.116 360.818 219.749 359.908 218.925 359.479C217.999 358.997 216.764 358.89 215.838 359.158Z" fill="black"/>
<path d="M299.098 367.515C307.846 371.694 313.3 373.676 320.813 375.444C327.812 377.105 328.326 377.748 324.518 380.641C321.534 382.891 322.46 383.802 327.606 383.802C331.208 383.802 332.649 383.159 333.678 381.123C334.604 379.248 339.75 376.623 346.954 374.426C354.982 371.908 366.405 367.676 365.788 367.354C364.965 366.926 356.937 368.265 348.704 370.14C340.985 371.962 340.882 371.962 339.235 370.944C337.692 370.033 337.383 369.98 336.251 370.676C334.295 371.908 330.179 371.64 323.901 369.926C319.269 368.64 310.522 367.087 294.569 364.676C293.437 364.515 295.496 365.801 299.098 367.515Z" fill="black"/>
<path d="M20.1934 368.211C13.9155 370.301 9.38714 373.033 8.66672 375.069C8.25505 376.033 8.25505 376.837 8.46089 376.837C8.76964 376.837 11.0338 375.98 13.6067 374.962C18.4438 373.087 22.9722 372.337 28.0151 372.658C32.5434 372.926 33.3667 374.158 30.7938 376.783L28.5297 378.98L30.9997 379.301C32.3376 379.462 34.7047 379.516 36.3513 379.408C38.8213 379.248 39.3359 378.926 40.0563 377.158C40.5709 375.98 41.703 374.587 42.6293 374.051C46.0255 372.069 57.758 373.515 62.1834 376.515C63.4184 377.265 64.5505 377.908 64.8593 377.908C65.168 377.908 65.5797 376.89 65.7855 375.605C66.1972 373.622 65.6826 372.98 62.1834 370.569C60.0222 369.015 57.2434 367.622 56.1114 367.408C54.9793 367.247 51.9947 367.515 49.4218 367.997C44.7905 368.962 44.6876 368.908 43.0409 367.783L41.2913 366.604L39.3359 367.676C36.9688 369.069 36.1455 369.069 31.3084 367.729C26.3684 366.336 25.648 366.39 20.1934 368.211Z" fill="black"/>
<path d="M445.857 372.765C441.02 373.944 435.154 376.569 436.183 377.051C436.389 377.158 438.961 377.051 441.74 376.783C447.504 376.194 451.106 376.516 453.884 377.748C456.457 379.033 456.046 380.159 452.032 382.194C450.076 383.159 448.739 384.177 449.047 384.444C449.768 385.087 456.457 384.98 457.178 384.337C458.104 383.534 468.704 379.516 469.836 379.516C470.351 379.516 472.512 380.159 474.674 380.909C476.835 381.659 479.202 382.141 479.922 381.98C481.569 381.659 481.878 377.051 480.437 375.873C478.996 374.694 471.174 373.998 467.675 374.748C464.691 375.39 464.382 375.337 461.397 373.462C457.486 371.051 453.576 370.89 445.857 372.765Z" fill="black"/>
<path d="M1189.43 384.712C1188.2 385.516 1186.55 387.016 1185.83 387.927C1185.01 388.891 1183.77 389.695 1182.95 389.695C1182.23 389.695 1180.68 390.07 1179.55 390.498C1177.8 391.195 1178.11 391.248 1183.77 390.98C1190.77 390.605 1196.33 389.855 1197.15 389.105C1197.56 388.837 1197.05 388.248 1196.22 387.766C1195.3 387.337 1194.58 386.373 1194.58 385.73C1194.58 385.034 1193.96 384.177 1193.14 383.855C1192 383.373 1191.28 383.534 1189.43 384.712Z" fill="black"/>
<path d="M656.322 385.355C649.221 387.284 644.898 389.534 647.059 390.23C648.192 390.605 648.192 390.82 647.162 391.516C646.339 391.998 644.898 392.373 643.869 392.373C642.84 392.373 641.708 392.641 641.296 392.963C639.752 394.248 649.632 393.07 655.087 391.302C660.542 389.534 660.542 389.534 664.144 390.445C666.202 390.927 671.451 392.748 675.876 394.516C687.815 399.284 689.255 398.856 680.919 393.07C673.2 387.82 671.759 387.016 668.26 386.587C666.511 386.373 664.658 385.623 664.041 384.98C662.806 383.534 663.217 383.534 656.322 385.355Z" fill="black"/>
<path d="M876.255 384.659C874.094 385.034 870.389 385.355 868.021 385.302C864.419 385.248 862.258 385.73 855.054 388.087C850.32 389.695 846.924 391.087 847.438 391.141C847.953 391.248 851.04 390.82 854.436 390.23C861.229 388.998 864.831 388.891 865.86 389.802C866.581 390.391 864.008 391.784 860.2 392.909C857.524 393.713 861.126 395.106 866.581 395.427C870.903 395.695 871.212 395.641 872.241 394.088C872.859 393.177 874.196 392.213 875.329 391.891C877.078 391.409 879.239 392.105 890.56 396.713C897.867 399.713 903.939 401.909 904.145 401.588C904.557 400.945 895.294 392.748 891.384 390.284C889.84 389.32 886.958 388.141 885.106 387.659C882.739 387.069 881.709 386.427 881.709 385.623C881.709 383.962 880.783 383.801 876.255 384.659Z" fill="black"/>
<path d="M1012.11 386.212C1011.18 386.641 1008.81 387.016 1006.86 387.016C1003.36 387.016 998.109 388.355 992.037 390.82L989.669 391.784L993.58 391.516L997.491 391.195L994.712 392.534C993.169 393.284 991.419 393.981 990.699 394.088C989.978 394.195 989.669 394.677 990.081 395.266C990.904 396.391 995.844 396.016 1001.81 394.463C1003.97 393.873 1006.24 393.445 1006.96 393.445C1007.78 393.445 1010.87 394.731 1013.85 396.231C1021.57 400.141 1028.47 403.088 1029.91 403.088C1031.25 403.088 1030.84 402.231 1026.62 396.659C1024.56 393.873 1022.4 392.052 1019.52 390.713C1016.84 389.427 1015.5 388.302 1015.5 387.391C1015.5 385.623 1014.06 385.141 1012.11 386.212Z" fill="black"/>
<path d="M0.741943 394.73V401.481H3.82945C6.71112 401.481 13.5036 399.338 18.7524 396.766C22.0457 395.159 23.1778 394.945 25.5449 395.641C28.2207 396.338 29.5586 395.588 29.5586 393.284C29.5586 391.998 29.147 391.837 26.2653 391.837C24.5157 391.837 21.5311 392.105 19.5757 392.48C16.3853 393.07 16.0765 393.016 12.2686 390.873C10.0045 389.641 7.63737 388.623 6.81403 388.623C5.9907 388.623 4.34403 388.462 3.10903 388.302C0.741943 387.98 0.741943 387.98 0.741943 394.73Z" fill="black"/>
<path d="M720.439 394.998C722.806 396.766 728.364 400.195 732.789 402.713C737.112 405.177 740.714 407.588 740.714 408.07C740.714 408.553 738.861 409.678 736.597 410.642L732.583 412.356L734.95 413.321C738.347 414.713 743.493 414.66 744.316 413.267C744.625 412.678 746.58 411.499 748.638 410.642C751.623 409.356 752.961 409.088 755.534 409.356C757.283 409.517 759.342 409.892 759.959 410.213C761.606 410.856 764.385 410.32 764.385 409.356C764.385 408.124 774.779 404.695 778.484 404.695C782.086 404.695 783.115 403.892 781.572 402.177C780.131 400.516 778.69 400.356 773.647 401.534C767.987 402.874 766.237 402.82 763.355 401.213C760.268 399.499 755.74 399.07 748.535 399.874C743.184 400.463 742.669 400.409 739.479 399.177C737.626 398.481 732.275 396.713 727.54 395.32C722.806 393.873 718.792 392.534 718.484 392.266C718.175 392.052 717.557 391.838 717.043 391.838C716.528 391.838 718.072 393.284 720.439 394.998Z" fill="black"/>
<path d="M562.153 400.945C561.844 401.213 558.345 401.963 554.434 402.552C548.465 403.463 546.716 404.052 542.599 406.41C540.026 407.91 538.071 409.195 538.276 409.356C538.482 409.463 540.026 409.195 541.673 408.713C545.069 407.802 550.318 407.642 550.318 408.445C550.318 408.713 548.465 409.945 546.201 411.124C540.849 413.91 541.467 414.874 548.774 414.874C553.817 414.874 554.331 414.767 555.258 413.321C556.39 411.66 560.403 410.749 561.33 411.928C561.536 412.356 560.815 413.428 559.683 414.285C557.007 416.267 557.007 416.481 559.889 416.481C561.227 416.481 563.594 415.785 565.241 414.874C566.887 413.963 568.843 413.267 569.563 413.267C570.386 413.267 573.268 414.338 575.944 415.678C579.649 417.499 581.707 418.089 584.177 418.089C586.338 418.089 587.368 417.821 587.368 417.285C587.368 416.267 590.867 416.267 592.513 417.285C593.851 418.142 596.63 418.41 596.63 417.66C596.63 417.231 585.412 411.231 577.179 407.213C575.326 406.302 571.93 405.124 569.769 404.588C566.373 403.838 565.755 403.409 565.755 402.017C565.755 400.463 563.594 399.766 562.153 400.945Z" fill="black"/>
</svg>
