<svg width="183" height="68" viewBox="0 0 183 68" fill="none" xmlns="http://www.w3.org/2000/svg">
<path d="M100.164 68H34.3998C25.1828 68 16.6031 65.5717 10.2417 61.1595C3.63749 56.5791 0.000244141 50.2273 0.000244141 43.2728C0.000244141 36.2063 3.38709 30.1133 9.79401 25.6509C14.3747 22.4576 20.4731 20.1935 27.2923 19.1078C27.9208 19.0085 28.5094 18.7964 29.0095 18.489C29.5095 18.1817 29.9067 17.7879 30.1682 17.3402C32.5961 13.166 36.2328 9.46701 40.8042 6.52207C47.4919 2.25857 55.7731 0.000281299 64.7524 0.000281299C74.8529 -0.0332907 84.5733 2.93934 91.8522 8.28775C98.1073 12.8874 102.349 18.9668 104.292 26.0604C104.448 26.6421 104.82 27.1772 105.363 27.6016C105.907 28.0261 106.599 28.322 107.357 28.4539C118.881 30.4108 129.505 36.7877 129.505 47.9092C129.505 54.3595 126.409 59.6507 120.548 63.2149C115.398 66.3444 108.351 68 100.164 68Z" fill="#9A0707"/>
<path d="M153.418 62.8485H87.6537C78.4367 62.8485 69.857 61.1561 63.4956 58.0809C56.8914 54.8885 53.2542 50.4615 53.2542 45.6144C53.2542 40.6892 56.641 36.4426 63.0479 33.3324C67.6286 31.1068 73.727 29.5288 80.5462 28.7721C81.1747 28.7029 81.7633 28.5551 82.2634 28.3409C82.7634 28.1266 83.1606 27.8522 83.4221 27.5402C85.85 24.6308 89.4867 22.0528 94.0581 20.0002C100.746 17.0287 109.027 15.4548 118.006 15.4548C128.107 15.4314 137.827 17.5032 145.106 21.2309C151.361 24.4367 155.603 28.6738 157.546 33.6179C157.702 34.0233 158.074 34.3962 158.617 34.6921C159.161 34.9879 159.853 35.1941 160.611 35.2861C172.135 36.65 182.758 41.0945 182.758 48.8458C182.758 53.3415 179.662 57.0293 173.802 59.5134C168.652 61.6946 161.605 62.8485 153.418 62.8485Z" fill="#9A0707"/>
</svg>
