<svg width="610" height="100" viewBox="0 0 610 100" fill="none" xmlns="http://www.w3.org/2000/svg">
<path d="M396.01 100H329.846C320.573 100 311.941 97.4289 305.541 92.7571C298.896 87.9073 295.237 81.1819 295.237 73.8183C295.237 66.336 298.645 59.8847 305.09 55.1597C309.699 51.7786 315.834 49.3813 322.695 48.2318C323.328 48.1266 323.92 47.9021 324.423 47.5766C324.926 47.2512 325.325 46.8343 325.589 46.3602C328.031 41.9404 331.69 38.0239 336.289 34.9057C343.018 30.3914 351.349 28.0003 360.383 28.0003C370.545 27.9648 380.325 31.1122 387.648 36.7753C393.941 41.6455 398.209 48.0825 400.163 55.5934C400.32 56.2093 400.694 56.7758 401.241 57.2253C401.788 57.6747 402.485 57.988 403.247 58.1277C414.841 60.1997 425.529 66.9517 425.529 78.7274C425.529 85.5571 422.415 91.1596 416.518 94.9334C411.337 98.2471 404.247 100 396.01 100Z" fill="#9A0707"/>
<path d="M310.744 89.3333H215.017C201.601 89.3333 189.112 86.7622 179.852 82.0904C170.239 77.2406 164.945 70.5152 164.945 63.1516C164.945 55.6694 169.875 49.218 179.201 44.493C185.868 41.1119 194.745 38.7147 204.671 37.5651C205.586 37.4599 206.443 37.2354 207.171 36.9099C207.899 36.5845 208.477 36.1676 208.858 35.6935C212.392 31.2737 217.685 27.3572 224.34 24.239C234.074 19.7247 246.128 17.3336 259.199 17.3336C273.901 17.2981 288.05 20.4456 298.646 26.1086C307.751 30.9788 313.925 37.4158 316.753 44.9267C316.98 45.5426 317.521 46.1092 318.313 46.5586C319.104 47.008 320.112 47.3213 321.215 47.461C337.989 49.533 353.453 56.285 353.453 68.0607C353.453 74.8904 348.946 80.4929 340.416 84.2667C332.92 87.5804 322.662 89.3333 310.744 89.3333Z" fill="#9A0707"/>
<path d="M189.84 72H93.4096C79.8945 72 67.314 69.4289 57.9862 64.7571C48.3024 59.9073 42.969 53.1819 42.969 45.8183C42.969 38.336 47.9352 31.8847 57.3297 27.1597C64.0465 23.7786 72.9886 21.3813 82.9877 20.2318C83.9094 20.1266 84.7724 19.9021 85.5057 19.5766C86.2389 19.2512 86.8213 18.8343 87.2047 18.3602C90.7648 13.9404 96.0973 10.0239 102.801 6.90572C112.607 2.39142 124.75 0.000297846 137.916 0.000297846C152.727 -0.035249 166.98 3.11224 177.653 8.77526C186.825 13.6455 193.045 20.0825 195.893 27.5934C196.122 28.2093 196.667 28.7758 197.465 29.2253C198.262 29.6747 199.277 29.988 200.388 30.1277C217.286 32.1997 232.863 38.9517 232.863 50.7274C232.863 57.5571 228.324 63.1596 219.73 66.9334C212.179 70.2471 201.846 72 189.84 72Z" fill="#9A0707"/>
<path d="M523.888 89.3333H427.457C413.942 89.3333 401.362 86.7622 392.034 82.0904C382.35 77.2406 377.017 70.5152 377.017 63.1516C377.017 55.6694 381.983 49.218 391.377 44.493C398.094 41.1119 407.036 38.7147 417.035 37.5651C417.957 37.4599 418.82 37.2354 419.553 36.9099C420.287 36.5845 420.869 36.1676 421.252 35.6935C424.812 31.2737 430.145 27.3572 436.848 24.239C446.654 19.7247 458.797 17.3336 471.964 17.3336C486.774 17.2981 501.027 20.4456 511.701 26.1086C520.873 30.9788 527.092 37.4158 529.941 44.9267C530.169 45.5426 530.715 46.1092 531.512 46.5586C532.309 47.008 533.324 47.3213 534.436 47.461C551.334 49.533 566.911 56.285 566.911 68.0607C566.911 74.8904 562.371 80.4929 553.778 84.2667C546.226 87.5804 535.894 89.3333 523.888 89.3333Z" fill="#9A0707"/>
<path d="M396.01 61.3333H329.846C320.573 61.3333 311.941 59.5716 305.541 56.3706C298.896 53.0476 295.237 48.4394 295.237 43.394C295.237 38.2673 298.645 33.8469 305.09 30.6094C309.699 28.2927 315.834 26.6502 322.695 25.8625C323.328 25.7904 323.92 25.6366 324.423 25.4136C324.926 25.1906 325.325 24.9049 325.589 24.5801C328.031 21.5517 331.69 18.8682 336.289 16.7317C343.018 13.6385 351.349 12.0002 360.383 12.0002C370.545 11.9758 380.325 14.1324 387.648 18.0126C393.941 21.3496 398.209 25.7602 400.163 30.9065C400.32 31.3286 400.694 31.7168 401.241 32.0247C401.788 32.3326 402.485 32.5473 403.247 32.643C414.841 34.0627 425.529 38.6891 425.529 46.7576C425.529 51.4372 422.415 55.276 416.518 57.8618C411.337 60.1322 404.247 61.3333 396.01 61.3333Z" fill="#9A0707"/>
<path d="M566.857 90.6667H470.426C456.911 90.6667 444.33 88.8574 435.002 85.5698C425.319 82.157 419.985 77.4243 419.985 72.2425C419.985 66.9772 424.951 62.4374 434.346 59.1124C441.063 56.7331 450.005 55.0461 460.004 54.2372C460.926 54.1632 461.789 54.0051 462.522 53.7761C463.255 53.5471 463.838 53.2537 464.221 52.9202C467.781 49.8099 473.114 47.0539 479.817 44.8596C489.623 41.6829 501.766 40.0002 514.932 40.0002C529.743 39.9752 543.996 42.1901 554.669 46.1752C563.841 49.6024 570.061 54.1321 572.909 59.4176C573.138 59.851 573.684 60.2497 574.481 60.5659C575.278 60.8822 576.293 61.1027 577.405 61.201C594.302 62.6591 609.879 67.4105 609.879 75.697C609.879 80.5031 605.34 84.4456 596.746 87.1013C589.195 89.4331 578.862 90.6667 566.857 90.6667Z" fill="#9A0707"/>
<path d="M146.872 92H50.4409C36.9258 92 24.3453 90.1907 15.0175 86.9031C5.3336 83.4903 0.000244141 78.7576 0.000244141 73.5758C0.000244141 68.3105 4.96642 63.7707 14.361 60.4457C21.0778 58.0664 30.0198 56.3794 40.019 55.5705C40.9406 55.4965 41.8037 55.3385 42.5369 55.1095C43.2702 54.8805 43.8525 54.5871 44.2359 54.2535C47.796 51.1432 53.1286 48.3872 59.8318 46.1929C69.638 43.0162 81.7809 41.3335 94.9473 41.3335C109.758 41.3085 124.011 43.5234 134.684 47.5085C143.856 50.9357 150.076 55.4654 152.924 60.7509C153.153 61.1843 153.699 61.583 154.496 61.8992C155.293 62.2155 156.308 62.436 157.42 62.5343C174.317 63.9924 189.894 68.7438 189.894 77.0303C189.894 81.8365 185.355 85.7789 176.761 88.4346C169.21 90.7664 158.877 92 146.872 92Z" fill="#9A0707"/>
<path d="M523.888 53.3333H427.457C413.942 53.3333 401.362 51.5716 392.034 48.3706C382.35 45.0476 377.017 40.4394 377.017 35.394C377.017 30.2673 381.983 25.8469 391.377 22.6094C398.094 20.2927 407.036 18.6502 417.035 17.8625C417.957 17.7905 418.82 17.6366 419.553 17.4136C420.287 17.1906 420.869 16.905 421.252 16.5802C424.812 13.5518 430.145 10.8682 436.848 8.7317C446.654 5.63857 458.797 4.0002 471.964 4.0002C486.774 3.97585 501.027 6.13246 511.701 10.0127C520.873 13.3497 527.092 17.7602 529.941 22.9066C530.169 23.3286 530.715 23.7168 531.512 24.0247C532.309 24.3327 533.324 24.5473 534.436 24.643C551.334 26.0628 566.911 30.6891 566.911 38.7576C566.911 43.4373 562.371 47.276 553.778 49.8618C546.226 52.1322 535.894 53.3333 523.888 53.3333Z" fill="#9A0707"/>
</svg>
