<svg width="433" height="110" viewBox="0 0 433 110" fill="none" xmlns="http://www.w3.org/2000/svg">
<path d="M298.856 95.2439H226.858C216.767 95.2439 207.374 92.3218 200.409 87.0122C193.179 81.5004 189.197 73.8568 189.197 65.4879C189.197 56.9842 192.905 49.6522 199.919 44.2822C204.934 40.4394 211.611 37.7149 219.076 36.4084C219.765 36.2889 220.409 36.0337 220.956 35.6638C221.504 35.294 221.939 34.8201 222.225 34.2814C224.883 29.2582 228.864 24.807 233.869 21.2631C241.191 16.1325 250.257 13.415 260.088 13.415C271.146 13.3746 281.788 16.9518 289.757 23.3879C296.605 28.923 301.249 36.2387 303.376 44.775C303.547 45.475 303.954 46.1189 304.549 46.6297C305.144 47.1405 305.902 47.4965 306.732 47.6553C319.348 50.0102 330.979 57.684 330.979 71.0672C330.979 78.8293 327.59 85.1966 321.173 89.4857C315.535 93.2517 307.82 95.2439 298.856 95.2439Z" fill="#9A0707"/>
<path d="M228.654 110H156.655C146.564 110 137.171 107.078 130.207 101.768C122.976 96.2565 118.994 88.6129 118.994 80.244C118.994 71.7403 122.702 64.4083 129.717 59.0383C134.732 55.1956 141.408 52.471 148.874 51.1645C149.562 51.045 150.206 50.7898 150.754 50.4199C151.301 50.0501 151.736 49.5762 152.022 49.0375C154.68 44.0143 158.662 39.5631 163.667 36.0192C170.988 30.8886 180.055 28.1711 189.885 28.1711C200.943 28.1307 211.585 31.7079 219.554 38.144C226.403 43.6791 231.046 50.9948 233.173 59.5311C233.344 60.2311 233.751 60.875 234.346 61.3858C234.942 61.8966 235.7 62.2526 236.529 62.4114C249.146 64.7663 260.776 72.4401 260.776 85.8233C260.776 93.5854 257.387 99.9527 250.971 104.242C245.333 108.008 237.618 110 228.654 110Z" fill="#9A0707"/>
<path d="M189.057 81.8293H65.331C47.9903 81.8293 31.8488 78.9071 19.8807 73.5976C7.45579 68.0857 0.612793 60.4422 0.612793 52.0733C0.612793 43.5696 6.98468 36.2375 19.0384 30.8675C27.6564 27.0248 39.1296 24.3003 51.9591 22.9938C53.1416 22.8743 54.249 22.619 55.1898 22.2492C56.1305 21.8793 56.8777 21.4055 57.3697 20.8667C61.9375 15.8435 68.7794 11.3923 77.38 7.84848C89.962 2.7179 105.542 0.000338507 122.435 0.000338507C141.438 -0.0400611 159.726 3.53711 173.42 9.97324C185.188 15.5083 193.168 22.8241 196.823 31.3603C197.117 32.0603 197.817 32.7043 198.839 33.215C199.862 33.7258 201.165 34.0819 202.591 34.2406C224.271 36.5955 244.258 44.2693 244.258 57.6525C244.258 65.4147 238.433 71.782 227.407 76.071C217.719 79.837 204.461 81.8293 189.057 81.8293Z" fill="#9A0707"/>
<path d="M350.681 110H222.061C204.035 110 187.255 107.078 174.814 101.768C161.897 96.2565 154.784 88.6129 154.784 80.244C154.784 71.7403 161.408 64.4083 173.938 59.0383C182.897 55.1956 194.824 52.471 208.161 51.1646C209.39 51.045 210.541 50.7898 211.519 50.4199C212.497 50.0501 213.274 49.5762 213.785 49.0375C218.534 44.0143 225.646 39.5631 234.587 36.0192C247.667 30.8886 263.863 28.1711 281.424 28.1711C301.178 28.1307 320.189 31.7079 334.425 38.144C346.659 43.6791 354.955 50.9948 358.754 59.5311C359.059 60.2311 359.787 60.875 360.85 61.3858C361.913 61.8966 363.267 62.2526 364.749 62.4114C387.288 64.7663 408.064 72.4401 408.064 85.8233C408.064 93.5854 402.009 99.9527 390.548 104.242C380.476 108.008 366.694 110 350.681 110Z" fill="#9A0707"/>
<path d="M304.363 92.561H232.364C222.273 92.561 212.88 90.549 205.916 86.8932C198.685 83.0982 194.703 77.8354 194.703 72.0733C194.703 66.2182 198.411 61.1699 205.425 57.4726C210.44 54.8268 217.117 52.9509 224.583 52.0513C225.271 51.969 225.915 51.7933 226.463 51.5386C227.01 51.284 227.445 50.9577 227.731 50.5868C230.389 47.1282 234.371 44.0634 239.376 41.6234C246.697 38.0909 255.764 36.2197 265.594 36.2197C276.652 36.1919 287.294 38.6549 295.263 43.0863C302.111 46.8974 306.755 51.9345 308.882 57.8119C309.053 58.2939 309.46 58.7372 310.055 59.0889C310.651 59.4406 311.408 59.6857 312.238 59.795C324.855 61.4164 336.485 66.7 336.485 75.9147C336.485 81.2591 333.096 85.6432 326.68 88.5963C321.041 91.1893 313.327 92.561 304.363 92.561Z" fill="#9A0707"/>
<path d="M228.654 72.439H156.655C146.564 72.439 137.171 70.3792 130.207 66.6363C122.976 62.751 118.994 57.3629 118.994 51.4635C118.994 45.4691 122.702 40.3006 129.717 36.5152C134.732 33.8064 141.408 31.8858 148.874 30.9649C149.562 30.8806 150.206 30.7007 150.754 30.44C151.301 30.1792 151.736 29.8452 152.022 29.4654C154.68 25.9245 158.662 22.7868 163.667 20.2886C170.988 16.672 180.055 14.7563 189.885 14.7563C200.943 14.7279 211.585 17.2495 219.554 21.7864C226.403 25.6882 231.046 30.8452 233.173 36.8626C233.344 37.356 233.751 37.8099 234.346 38.17C234.942 38.53 235.7 38.781 236.529 38.8929C249.146 40.553 260.776 45.9623 260.776 55.3964C260.776 60.8681 257.387 65.3565 250.971 68.3799C245.333 71.0347 237.618 72.439 228.654 72.439Z" fill="#9A0707"/>
<path d="M410.355 72.439H338.356C328.266 72.439 318.872 70.3792 311.908 66.6363C304.678 62.751 300.696 57.3629 300.696 51.4635C300.696 45.4691 304.403 40.3006 311.418 36.5152C316.433 33.8064 323.109 31.8858 330.575 30.9649C331.263 30.8806 331.908 30.7007 332.455 30.44C333.002 30.1792 333.437 29.8452 333.724 29.4654C336.382 25.9245 340.363 22.7868 345.368 20.2886C352.69 16.672 361.756 14.7563 371.587 14.7563C382.645 14.7279 393.287 17.2495 401.256 21.7864C408.104 25.6882 412.748 30.8452 414.874 36.8626C415.045 37.356 415.453 37.8099 416.048 38.17C416.643 38.53 417.401 38.781 418.231 38.8929C430.847 40.553 442.478 45.9623 442.478 55.3964C442.478 60.8681 439.088 65.3565 432.672 68.3799C427.034 71.0347 419.319 72.439 410.355 72.439Z" fill="#9A0707"/>
</svg>
