<svg width="1440" height="275" viewBox="0 0 1440 275" fill="none" xmlns="http://www.w3.org/2000/svg">
<g filter="url(#filter0_d_30_92)">
<path d="M-15.1455 70.9569C-15.1455 65.1596 -8.50197 61.875 -3.89552 65.3947L95.4601 141.311C110.392 152.721 131.337 151.859 145.281 139.263L204.938 85.3725C208.521 82.1367 213.309 80.5763 218.11 81.0806L386.896 98.8104C387.832 98.9087 388.779 98.8171 389.68 98.541L693.654 5.31464C721.477 -3.21856 751.539 -0.483325 777.365 12.9313L878.435 65.4288C897.231 75.1917 918.1 80.2883 939.28 80.2883H1105.75C1106.33 80.2883 1106.9 80.3591 1107.46 80.4991L1204.34 104.828C1206.68 105.414 1209.15 104.759 1210.89 103.092L1290.85 26.4477C1292.92 24.4595 1296 23.9407 1298.61 25.1395L1470.18 103.898C1472.66 105.039 1474.25 107.524 1474.25 110.26V160.996V267H578.729H-15.1455V70.9569Z" fill="#050320"/>
</g>
<defs>
<filter id="filter0_d_30_92" x="-19.1455" y="0.435791" width="1497.4" height="274.564" filterUnits="userSpaceOnUse" color-interpolation-filters="sRGB">
<feFlood flood-opacity="0" result="BackgroundImageFix"/>
<feColorMatrix in="SourceAlpha" type="matrix" values="0 0 0 0 0 0 0 0 0 0 0 0 0 0 0 0 0 0 127 0" result="hardAlpha"/>
<feOffset dy="4"/>
<feGaussianBlur stdDeviation="2"/>
<feComposite in2="hardAlpha" operator="out"/>
<feColorMatrix type="matrix" values="0 0 0 0 0 0 0 0 0 0 0 0 0 0 0 0 0 0 0.25 0"/>
<feBlend mode="normal" in2="BackgroundImageFix" result="effect1_dropShadow_30_92"/>
<feBlend mode="normal" in="SourceGraphic" in2="effect1_dropShadow_30_92" result="shape"/>
</filter>
</defs>
</svg>
