<svg width="89" height="41" viewBox="0 0 89 41" fill="none" xmlns="http://www.w3.org/2000/svg">
<g clip-path="url(#clip0_30_131)">
<g filter="url(#filter0_d_30_131)">
<path d="M30.5334 6.8498V6.85376L30.5466 6.85771L30.5819 6.87352L30.7096 6.93282C30.8154 6.98224 30.974 7.05537 31.1634 7.15025C31.5511 7.33605 32.0974 7.6108 32.7582 7.96264C34.0799 8.66829 35.8553 9.68823 37.7057 10.9651C40.0759 12.5998 42.5959 14.6772 44.3934 17.0571C46.1952 14.6772 48.7108 12.5998 51.081 10.9651C52.5933 9.92032 54.2455 8.91765 56.0285 7.96264C56.6884 7.61031 57.3715 7.26688 58.0771 6.93282L58.2048 6.87352L58.2401 6.85771L58.2489 6.85376C58.5573 6.71559 58.95 6.6195 59.3774 6.58131C59.8049 6.54312 60.2479 6.56256 60.6508 6.63719C61.0536 6.71181 61.3982 6.83827 61.6411 7.00063C61.884 7.16299 62.0143 7.35398 62.0157 7.54953V17.6421C63.1215 16.6103 64.3286 15.7703 65.5137 15.0923C67.1702 14.1475 68.7738 13.5268 69.9986 13.1355C70.6266 12.9358 71.2896 12.7593 71.9811 12.6077L72.1264 12.578L72.1749 12.5682L72.1969 12.5642H72.2057L72.2102 12.5622C72.5444 12.5021 72.9063 12.4797 73.2643 12.4969C73.6223 12.5141 73.9655 12.5705 74.2637 12.661C74.562 12.7515 74.8062 12.8734 74.9751 13.0161C75.144 13.1588 75.2323 13.3178 75.2324 13.4794V28.304C75.2324 29.8767 73.8399 31.385 71.3613 32.4971C68.8827 33.6091 65.521 34.2339 62.0157 34.2339H26.771C23.2658 34.2339 19.904 33.6091 17.4254 32.4971C14.9468 31.385 13.5543 29.8767 13.5543 28.304V13.4794C13.5544 13.3178 13.6427 13.1588 13.8116 13.0161C13.9805 12.8734 14.2247 12.7515 14.523 12.661C14.8212 12.5705 15.1644 12.5141 15.5224 12.4969C15.8804 12.4797 16.2423 12.5021 16.5765 12.5622L16.5898 12.5642L16.6118 12.5682L16.6603 12.578C16.8715 12.6174 17.0774 12.6623 17.277 12.7125C17.6559 12.8034 18.1758 12.9417 18.7881 13.1374C20.0173 13.5268 21.6165 14.1475 23.273 15.0943C24.4625 15.7703 25.6652 16.6103 26.771 17.6441V7.54953C26.7703 7.3538 26.899 7.16238 27.141 6.99953C27.383 6.83667 27.7273 6.70973 28.1303 6.63478C28.5333 6.55983 28.9768 6.54026 29.4047 6.57854C29.8325 6.61682 30.2253 6.71123 30.5334 6.8498Z" fill="#050320"/>
</g>
</g>
<defs>
<filter id="filter0_d_30_131" x="9.55432" y="6.55945" width="69.6781" height="35.6744" filterUnits="userSpaceOnUse" color-interpolation-filters="sRGB">
<feFlood flood-opacity="0" result="BackgroundImageFix"/>
<feColorMatrix in="SourceAlpha" type="matrix" values="0 0 0 0 0 0 0 0 0 0 0 0 0 0 0 0 0 0 127 0" result="hardAlpha"/>
<feOffset dy="4"/>
<feGaussianBlur stdDeviation="2"/>
<feComposite in2="hardAlpha" operator="out"/>
<feColorMatrix type="matrix" values="0 0 0 0 0 0 0 0 0 0 0 0 0 0 0 0 0 0 0.25 0"/>
<feBlend mode="normal" in2="BackgroundImageFix" result="effect1_dropShadow_30_131"/>
<feBlend mode="normal" in="SourceGraphic" in2="effect1_dropShadow_30_131" result="shape"/>
</filter>
<clipPath id="clip0_30_131">
<rect width="88.1115" height="39.5324" fill="white" transform="translate(0.337646 0.631348)"/>
</clipPath>
</defs>
</svg>
