<svg width="818" height="576" viewBox="0 0 818 576" fill="none" xmlns="http://www.w3.org/2000/svg">
<path d="M199.927 209.136L201.554 209.869L213.3 194.123L222.661 170.449L233.359 147.93L271.685 95.6434L337.69 37.7108L388.373 8.19801L403.696 0L457.915 59.5722L532.172 138.273L553.388 147.93L578.729 175.984L609.964 194.019L632.359 220.8L670.265 254.624L745.224 376.721L773.607 460.104L796.895 504.773L818 555.399L790.345 561.354L640.026 575.5H0.000244141L86.0435 413.179L91.9368 404.981L101.366 391.865L126.708 326.281L130.387 318.265L199.927 209.136Z" fill="#9A0707"/>
<path d="M374.819 53.0138L425.857 134.994L312.939 177.623L350.067 159.041L331.797 165.053L289.954 184.182L330.619 160.681L340.048 153.029L358.907 136.087L282.882 180.356L295.848 175.437L319.421 153.029L223.949 194.019L250.469 174.891L266.97 169.425L270.506 148.111L280.525 120.784L282.882 128.435L284.65 102.202L294.669 114.226L288.776 101.109L302.92 87.9919L319.421 79.7939L326.493 76.5147L338.28 63.3979L348.299 53.0138L349.478 48.095L356.55 44.2692L378.944 36.0712L391.91 24.594L403.107 10.9307L403.697 14.7564L404.875 16.9425L406.643 23.5009L401.339 21.3148L406.643 24.594L406.054 29.5128L396.624 28.4197L405.465 30.6059L393.088 34.4316L404.875 30.6059L402.518 39.8969L374.819 53.0138Z" fill="white"/>
<path d="M342.406 155.762L390.142 160.134L280.525 280.372L342.406 186.915L299.384 267.802L355.96 190.74L257.541 286.93L298.205 263.429L307.635 255.778L326.493 238.835L338.28 182.542L263.434 278.186L287.008 255.778L326.493 190.74L331.798 179.263L234.557 272.174L238.093 250.859L313.528 200.562L315.885 208.213L324.136 175.437L262.256 216.974L256.362 203.857L270.506 190.74L287.008 182.542L294.08 179.263L305.867 166.146L315.885 155.762L330.03 162.867L324.136 147.018L346.531 138.82L359.496 127.342L329.44 173.251L371.283 117.505L372.462 119.691L374.23 126.249L368.926 124.063L374.23 127.342L373.64 132.261L364.211 131.168L373.051 133.354L360.675 137.18L372.462 133.354L370.104 142.645L342.406 155.762Z" fill="white"/>
<path d="M480.365 141.796L499.215 161.685L515.935 175.077L503.646 170.168L507.201 172.223L497.962 169.735L499.99 177.928L492.004 167.389L495.848 175.973L506.009 190.62L480.643 174.863L458.922 122.137L402.981 50.977L408.829 53.8201L433.581 66.9368L438.885 80.6002L458.922 97.5428L470.12 128.149L478.371 137.986L448.233 147.278L480.365 141.796Z" fill="white"/>
<path d="M477.953 154.669L551.62 223.532L507.045 192.38H448.861L447.79 159.588L493.865 179.81L446.718 126.796L477.953 154.669Z" fill="white"/>
</svg>
