<svg width="54" height="68" viewBox="0 0 54 68" fill="none" xmlns="http://www.w3.org/2000/svg">
<g filter="url(#filter0_d_30_126)">
<path d="M28.5859 1.39342C28.4147 1.13962 28.1827 0.931518 27.9106 0.787591C27.6385 0.643664 27.3347 0.568359 27.0261 0.568359C26.7175 0.568359 26.4137 0.643664 26.1416 0.787591C25.8695 0.931518 25.6375 1.13962 25.4663 1.39342L14.218 18.0715C14.0302 18.3506 13.9224 18.6748 13.9062 19.0096C13.89 19.3444 13.9659 19.6773 14.126 19.9728C14.2861 20.2684 14.5242 20.5154 14.8151 20.6877C15.106 20.86 15.4387 20.9511 15.7778 20.9513H16.1452L8.56387 32.941C8.38651 33.2215 8.28834 33.5438 8.27956 33.8745C8.27077 34.2052 8.35169 34.5322 8.51392 34.8215C8.67615 35.1108 8.91376 35.352 9.2021 35.5199C9.49044 35.6878 9.81899 35.7763 10.1536 35.7763H10.8698L4.7282 47.918C4.58498 48.2005 4.51722 48.5145 4.53138 48.8302C4.54554 49.1459 4.64113 49.4528 4.80908 49.7217C4.97703 49.9906 5.21175 50.2126 5.49094 50.3665C5.77013 50.5205 6.0845 50.6013 6.4042 50.6013H23.2767V59.8669H30.7755V50.6013H47.648C47.9677 50.6013 48.2821 50.5205 48.5613 50.3665C48.8404 50.2126 49.0752 49.9906 49.2431 49.7217C49.4111 49.4528 49.5067 49.1459 49.5208 48.8302C49.535 48.5145 49.4672 48.2005 49.324 47.918L43.1862 35.7763H43.9023C44.237 35.7763 44.5655 35.6878 44.8538 35.5199C45.1422 35.352 45.3798 35.1108 45.542 34.8215C45.7043 34.5322 45.7852 34.2052 45.7764 33.8745C45.7676 33.5438 45.6694 33.2215 45.4921 32.941L37.907 20.9513H38.2744C38.6135 20.9511 38.9462 20.86 39.2371 20.6877C39.528 20.5154 39.7661 20.2684 39.9262 19.9728C40.0862 19.6773 40.1622 19.3444 40.146 19.0096C40.1298 18.6748 40.022 18.3506 39.8342 18.0715L28.5859 1.39342Z" fill="#050320"/>
</g>
<defs>
<filter id="filter0_d_30_126" x="0.529541" y="0.568359" width="52.9932" height="67.2986" filterUnits="userSpaceOnUse" color-interpolation-filters="sRGB">
<feFlood flood-opacity="0" result="BackgroundImageFix"/>
<feColorMatrix in="SourceAlpha" type="matrix" values="0 0 0 0 0 0 0 0 0 0 0 0 0 0 0 0 0 0 127 0" result="hardAlpha"/>
<feOffset dy="4"/>
<feGaussianBlur stdDeviation="2"/>
<feComposite in2="hardAlpha" operator="out"/>
<feColorMatrix type="matrix" values="0 0 0 0 0 0 0 0 0 0 0 0 0 0 0 0 0 0 0.25 0"/>
<feBlend mode="normal" in2="BackgroundImageFix" result="effect1_dropShadow_30_126"/>
<feBlend mode="normal" in="SourceGraphic" in2="effect1_dropShadow_30_126" result="shape"/>
</filter>
</defs>
</svg>
